<svg xmlns="http://www.w3.org/2000/svg" width="1491" height="1055" viewBox="0 0 1491 1055"><defs><radialGradient id="bg" cx="87%" cy="17%" r="88%"><stop offset="0" stop-color="#241b10"/><stop offset="0.40" stop-color="#111216"/><stop offset="1" stop-color="#090b0e"/></radialGradient><pattern id="grid" width="40" height="40" patternUnits="userSpaceOnUse"><path d="M40 0H0V40" fill="none" stroke="#7a6338" stroke-width="0.5" opacity="0.3"/></pattern><filter id="glow" x="-40%" y="-40%" width="180%" height="180%"><feGaussianBlur stdDeviation="2.0" result="blur"/><feMerge><feMergeNode in="blur"/><feMergeNode in="SourceGraphic"/></feMerge></filter></defs><path d="M1196 1002L1195 1004L1196 1005L1198 1005L1198 1003ZM985 998L985 1006L986 1006L986 998ZM930 999L930 1000L933 1000L933 998L931 998ZM1088 995L1088 996L1103 997L1104 998L1166 999L1167 1000L1178 1001L1178 1000L1174 1000L1173 999L1157 998L1156 997L1125 997L1124 996L1117 997L1116 996ZM1071 992L1071 993L1080 994L1080 993ZM1055 988L1055 989L1059 990L1059 989ZM1244 986L1244 988L1249 988L1249 986ZM1227 985L1227 986L1229 986L1230 987L1236 987L1236 986L1230 986L1229 985ZM749 983L749 984L753 984L753 983ZM765 981L759 982L759 983L764 984L765 983ZM770 982L772 982L773 981L780 981L780 980L773 980L772 981L770 981ZM1046 975L1044 974L1043 975L1043 977L1045 977ZM919 972L920 971L922 972L926 971L927 972L927 977L926 978L920 977L919 976ZM944 971L944 975L939 979L933 979L929 977L929 972L930 971L937 971L938 970L943 970ZM1101 972L1101 974L1116 974L1123 978L1127 978L1128 976L1187 977L1210 981L1207 979L1198 978L1196 976L1198 973L1195 974L1194 977L1168 975L1139 976L1124 974L1123 971L1116 973L1103 967L1102 968L1108 970L1109 972ZM1014 963L1013 965L1015 966L1015 963ZM869 958L867 959L867 961L869 960ZM862 957L860 957L860 958L858 959L858 960L861 959ZM730 956L730 957L743 957L743 956ZM1010 955L1010 957L1012 958L1013 957L1013 955ZM850 950L844 950L843 951L834 951L834 952L835 953L839 953L840 952L850 952ZM798 948L796 948L795 949L791 949L790 950L777 951L776 952L758 953L757 954L756 954L754 952L754 951L751 951L750 952L748 952L747 953L747 955L751 957L752 956L758 956L759 954L766 954L767 953L777 953L778 952L786 952L787 951L793 951L794 950L798 949ZM1006 939L1006 944L1007 944L1007 939ZM1191 929L1191 931L1201 931L1204 933L1208 933L1209 931L1229 931L1230 930L1234 930L1234 929L1208 929L1207 928L1204 928L1202 930L1194 930L1193 929ZM996 928L997 927L999 927L1000 928L1001 932L1000 933L997 933L996 932ZM1036 927L1036 928L1039 928L1039 926L1037 926ZM1003 925L1008 925L1009 926L1009 928L1007 930L1007 932L1006 933L1004 933L1003 932L1003 930L1002 929L1002 926ZM791 921L789 922L785 922L784 923L780 923L779 924L773 924L772 923L770 923L769 925L761 925L760 926L757 926L755 923L754 923L754 925L753 926L738 926L733 928L725 928L724 930L729 930L733 928L742 928L743 927L766 927L767 926L770 926L772 928L774 928L775 926L779 926L781 924L788 923L789 922L791 922ZM1085 918L1085 919L1091 919L1094 922L1096 922L1097 923L1099 922L1099 919L1091 919L1090 918ZM1284 916L1284 917L1288 917L1289 918L1296 918L1296 916L1294 916L1293 917L1288 917L1287 916ZM1114 910L1114 912L1120 912L1120 910ZM1129 910L1129 912L1153 912L1154 913L1161 913L1162 912L1170 912L1172 913L1173 912L1179 912L1180 911L1180 910L1164 910L1163 911L1161 911L1159 909L1157 909L1155 911L1148 911L1145 909L1143 909L1142 911L1137 911L1133 909ZM811 909L811 911L812 912L814 912L814 910L813 909ZM950 908L951 907L953 907L954 908L954 910L953 911L951 911L950 910ZM849 904L849 906L850 908L851 908L850 904ZM1024 900L1025 902L1027 901L1027 900ZM1012 900L1011 900L1009 903L1007 904L1004 904L1004 906L1005 907L1008 907L1009 906L1009 903L1010 902L1012 902ZM864 898L863 900L865 901L866 899ZM1117 888L1120 886L1136 885L1137 886L1136 888L1131 888L1130 889L1128 889L1128 890L1133 890L1135 889L1136 890L1138 890L1139 892L1137 894L1124 894L1123 893L1124 890L1118 890ZM1149 884L1148 886L1144 886L1143 887L1138 887L1137 886L1138 884L1143 884L1144 883L1148 883ZM847 881L847 882L852 882L852 881ZM1231 881L1233 878L1235 878L1236 879L1236 882L1235 883L1232 883ZM1105 879L1105 880L1110 880L1111 881L1123 881L1123 880ZM869 879L868 879L866 881L866 883L868 883ZM1092 878L1092 879L1096 879L1097 880L1097 883L1100 883L1100 882L1098 881L1098 878ZM858 878L858 879L861 879L861 877L859 877ZM699 877L699 878L702 879L702 877ZM834 876L834 878L837 878L837 876ZM735 876L735 877L739 878L739 877ZM1152 875L1154 874L1155 876L1153 877ZM1080 875L1080 876L1088 878L1088 877ZM684 872L684 873L688 874L688 873ZM1009 871L1009 873L1011 873L1012 872L1012 871ZM1120 870L1120 871L1122 871L1123 872L1130 872L1130 871L1122 871ZM1205 868L1206 867L1212 867L1213 868L1213 873L1212 874L1210 873L1207 874L1205 872ZM1194 867L1192 869L1192 871L1194 873L1197 873L1198 872L1198 869L1197 867ZM1177 867L1178 866L1180 867L1184 867L1185 868L1185 872L1184 873L1179 873L1177 870ZM767 867L767 868L772 868L772 867ZM1192 863L1199 863L1203 868L1203 871L1202 873L1197 877L1193 877L1191 876L1188 872L1188 867ZM793 864L791 864L787 866L784 866L783 867L780 867L780 868L784 868L785 867L792 867L793 866ZM1242 862L1244 863L1244 865L1243 866L1241 866L1240 865L1240 864ZM810 863L808 863L806 864L806 865L810 864ZM1277 861L1274 861L1273 862L1273 864L1277 862ZM795 863L797 862L801 862L801 861L796 861ZM1035 859L1035 860L1037 861L1043 862L1043 861L1040 861L1039 860ZM1096 858L1096 860L1097 861L1097 866L1098 866L1098 861L1099 859L1098 858ZM1018 854L1019 856L1022 856L1023 857L1028 858L1028 855ZM852 853L848 854L847 855L845 855L842 857L839 857L838 858L833 858L832 859L827 859L826 860L819 860L818 862L823 862L824 861L829 861L830 860L837 860L838 859L841 859L844 857L850 857L850 855L852 854ZM1184 836L1182 838L1182 840L1184 842L1192 843L1192 848L1189 850L1188 857L1190 860L1186 865L1183 865L1180 861L1175 862L1175 879L1181 880L1181 878L1183 876L1187 876L1193 880L1199 880L1205 876L1208 876L1209 880L1215 880L1216 862L1210 861L1208 864L1205 864L1201 860L1202 851L1198 848L1198 844L1200 842L1206 842L1208 840L1208 837L1207 836ZM950 835L953 835L954 836L954 897L953 898L950 898L949 897L949 893L948 892L948 885L949 884L949 836ZM1191 824L1201 824L1215 830L1225 841L1229 850L1230 857L1229 868L1224 880L1214 890L1198 896L1187 895L1173 888L1163 874L1161 863L1161 854L1168 838L1179 828ZM913 806L915 811L914 895L912 896L912 901L916 910L912 912L913 924L911 925L908 921L908 810ZM952 804L954 805L954 826L953 827L950 827L949 826L949 806ZM909 795L910 795L914 798L914 800L912 801L911 803L909 803L908 802L908 796ZM936 794L938 794L939 793L941 794L941 797L942 798L942 802L941 803L937 803L936 802L936 799L935 798L935 795ZM953 786L954 787L954 794L950 796L949 795L950 787L951 786ZM911 779L913 780L913 792L912 793L911 793L908 790L908 782ZM918 779L920 778L921 780L919 781ZM908 770L909 769L912 769L913 770L913 772L912 773L909 773L908 772ZM1166 760L1166 761L1172 761L1172 760ZM1131 760L1131 761L1135 761L1135 760ZM1123 760L1123 761L1127 761L1127 760ZM1194 760L1194 761L1197 761L1197 759L1195 759ZM1096 759L1096 762L1098 762L1099 761L1099 759ZM1209 758L1208 759L1208 761L1209 762L1211 762L1211 758ZM1044 759L1044 762L1045 764L1050 768L1054 768L1055 767L1057 767L1059 765L1059 763L1061 761L1073 761L1073 760L1063 760L1061 759L1058 755L1054 753L1049 753L1047 754ZM1356 730L1355 731L1355 733L1356 734L1358 734L1358 731ZM1308 724L1309 725L1309 750L1308 751L1305 750L1305 732L1304 731L1298 731L1297 733L1297 750L1296 751L1293 750L1293 739L1292 738L1287 738L1286 739L1286 750L1284 751L1283 750L1283 734L1284 733L1288 733L1290 732L1297 725L1302 725L1304 726ZM1280 712L1280 754L1320 754L1321 752L1317 750L1317 738L1318 737L1317 723L1311 723L1310 722L1313 718L1317 718L1318 713L1312 712L1311 716L1304 723L1297 722L1291 728L1283 733L1282 732L1282 724L1283 723L1282 712ZM1331 709L1333 708L1334 710L1332 711ZM935 709L937 708L938 710L936 711ZM1293 698L1308 698L1318 702L1331 715L1336 730L1336 738L1330 754L1319 765L1306 770L1294 770L1281 765L1269 752L1265 740L1265 728L1268 718L1277 706ZM945 698L947 697L948 698L948 700L946 701L945 700ZM909 697L911 698L911 705L910 706L908 705L908 698ZM949 697L950 696L952 696L953 698L952 699L950 699ZM1096 721L1097 724L1099 721L1104 721L1113 729L1119 728L1125 721L1200 721L1210 729L1216 723L1216 717L1209 711L1209 714L1201 720L1125 720L1115 711L1114 696L1113 712L1109 714L1106 719ZM921 683L922 684L922 693L918 698L918 700L916 702L915 702L914 701L914 695L917 693L917 688L916 688L915 686L919 683ZM936 676L938 677L938 680L937 681L935 680L935 677ZM945 676L945 678L947 679L947 681L949 681L949 679L947 678L946 676ZM1161 672L1158 672L1157 673L1151 673L1151 674L1157 674L1158 673L1161 673ZM1218 671L1218 672L1224 672L1224 671ZM1300 670L1299 672L1301 673L1302 671ZM1321 669L1321 672L1323 672L1323 670ZM1173 669L1168 670L1168 671L1170 670L1173 670ZM1113 669L1113 671L1115 672L1116 670L1115 669ZM913 667L914 669L916 668L916 667ZM1189 661L1182 664L1181 666L1189 662ZM946 656L944 656L943 660L945 660L946 659ZM1156 655L1154 656L1149 656L1149 658L1151 657L1156 657ZM1203 651L1202 651L1199 654L1198 654L1196 656L1196 657L1197 657L1200 654L1201 654L1203 652ZM949 650L949 655L951 655L950 653L950 650ZM999 645L999 646L1005 646L1005 645ZM1033 644L1033 645L1035 645L1039 647L1042 647L1045 649L1049 649L1050 650L1056 650L1056 649L1047 648L1046 647L1043 647L1040 645L1036 645L1035 644ZM1187 643L1185 643L1184 645L1182 645L1180 647L1178 647L1178 649L1179 649L1181 647L1183 647L1183 646L1184 645L1186 645ZM1018 643L1018 645L1020 645L1021 644L1023 644L1024 646L1026 645L1029 645L1029 644L1023 644L1022 643ZM977 643L977 645L978 646L978 652L979 652L979 644ZM1212 642L1210 643L1210 645L1212 644ZM1106 637L1107 639L1109 639L1109 638ZM1197 634L1195 635L1194 638L1195 638L1197 636ZM1224 626L1222 627L1219 633L1221 632ZM944 618L944 621L950 621L950 619L947 619L946 617ZM911 617L912 620L913 620L913 617ZM1222 613L1209 633L1194 647L1175 658L1152 665L1143 665L1143 671L1141 675L1142 676L1145 675L1143 672L1145 669L1150 669L1158 665L1176 660L1198 647L1214 630L1220 620ZM896 613L894 612L893 613L891 613L892 616L893 616L894 615L896 615ZM989 611L991 610L992 612L990 613ZM1214 609L1213 609L1213 612L1211 613L1211 615L1209 617L1209 619L1210 619L1211 618L1211 616L1213 615ZM914 607L912 608L912 610L913 610ZM1135 607L1137 605L1141 605L1143 606L1143 603L1144 602L1149 602L1150 603L1150 607L1151 609L1150 610L1136 610L1135 609ZM974 602L974 604L976 605L975 602ZM993 599L995 599L997 601L996 603L996 607L994 609L992 609L991 608L992 606L991 601ZM1146 593L1147 592L1182 592L1183 593L1183 597L1181 599L1147 599L1146 598ZM1102 596L1102 593L1103 592L1116 592L1117 593L1117 596L1118 596L1118 593L1119 592L1139 592L1140 593L1139 595L1139 598L1138 599L1105 599ZM918 590L918 592L920 592L921 591L921 590ZM1044 597L1048 597L1049 599L1050 599L1051 597L1057 597L1057 596L1059 595L1059 594L1054 594L1053 595L1050 595L1049 594L1049 590L1047 589L1047 592L1048 594L1046 596L1044 596ZM1236 587L1235 587L1234 597L1233 598L1233 602L1231 606L1231 609L1229 612L1229 614L1227 616L1227 619L1225 623L1226 623L1229 617L1229 615L1231 612L1231 610L1233 606L1233 603L1235 599L1235 594L1236 593ZM1221 585L1219 586L1219 592L1218 593L1217 601L1215 603L1215 607L1216 607L1216 605L1217 604L1218 597L1220 595ZM873 582L875 581L876 583L874 584ZM764 582L760 583L760 584L764 583ZM889 581L889 583L890 585L891 585L891 582ZM767 581L767 582L781 582L790 584L800 584L808 587L812 587L815 589L828 591L838 596L839 593L846 594L850 596L855 594L855 593L845 593L839 591L831 591L821 587L818 588L815 585L809 585L802 583L783 582L782 581ZM1245 580L1242 580L1243 658L1241 662L1235 663L1233 669L1230 671L1234 673L1235 679L1241 682L1250 679L1252 673L1254 672L1251 669L1250 664L1244 660ZM1235 579L1235 582L1237 582L1238 580L1237 579ZM1046 578L1045 579L1045 581L1046 582L1048 582L1049 581L1049 579L1048 578ZM974 576L971 576L971 577L973 578L973 580L971 581L971 583L969 586L969 588L971 587L971 585L972 584L973 584L974 585L974 587L975 587L975 585L974 584L975 582ZM921 573L919 573L917 575L917 576L920 575ZM1332 572L1331 572L1324 579L1321 579L1318 581L1318 585L1320 587L1323 587L1326 584L1326 581L1332 574ZM994 570L994 571L996 573L997 573L997 572L995 570ZM1168 566L1168 569L1171 569L1172 568L1172 566ZM1296 559L1306 560L1307 561L1307 562L1301 568L1300 570L1299 570L1297 567L1293 566L1292 565L1293 562ZM914 558L915 560L919 562L919 557L918 557L917 559ZM1306 551L1308 553L1308 554L1306 556L1303 557L1301 555L1301 554L1303 552ZM1174 550L1168 554L1160 565L1156 561L1153 554L1151 554L1151 556L1146 565L1144 567L1138 568L1132 557L1130 556L1123 565L1120 565L1115 571L1111 571L1112 573L1117 573L1121 568L1131 567L1141 576L1142 573L1147 568L1151 561L1160 569L1166 562L1167 558L1173 556L1172 553L1174 552ZM981 550L979 551L979 554L981 553ZM975 550L972 550L971 552L969 553L969 555L970 555L970 553L971 552L975 554ZM1320 546L1331 547L1343 553L1354 567L1356 574L1355 593L1350 603L1340 612L1327 617L1313 616L1302 611L1292 600L1287 583L1289 571L1297 573L1298 590L1306 600L1310 595L1305 596L1303 592L1306 590L1302 590L1300 586L1304 583L1300 580L1306 574L1304 570L1306 567L1311 568L1319 560L1323 565L1325 560L1328 564L1333 564L1332 568L1337 569L1339 576L1343 576L1344 581L1339 582L1343 585L1343 589L1339 590L1341 592L1339 596L1335 595L1338 600L1342 597L1347 583L1345 572L1336 561L1317 557L1311 551L1312 548ZM988 547L990 546L991 548L989 549ZM1106 546L1107 545L1152 545L1153 546L1177 545L1179 549L1178 555L1179 586L1177 589L1107 589L1106 588L1107 575ZM1053 546L1052 546L1051 548L1051 551L1049 554L1049 559L1048 560L1048 564L1047 565L1047 572L1048 572L1048 567L1049 566L1049 562L1050 561L1050 556L1051 555L1051 551L1053 548ZM1192 544L1201 565L1202 575L1197 580L1200 580L1202 585L1193 610L1179 626L1159 637L1137 639L1123 636L1109 629L1094 612L1102 601L1131 602L1132 609L1124 611L1123 617L1162 617L1163 612L1155 610L1152 603L1182 602L1185 599L1185 550L1187 544ZM974 545L974 547L975 547L977 545L978 545L979 547L980 547L980 545L978 545L977 544L975 544ZM873 537L875 536L876 538L874 539ZM1358 534L1355 557L1335 538L1304 534L1275 561L1272 579L1266 581L1278 585L1282 599L1300 616L1320 620L1321 627L1323 620L1335 620L1335 702L1323 698L1321 680L1320 697L1309 689L1292 688L1267 702L1256 721L1257 743L1269 757L1261 761L1291 777L1309 777L1331 765L1349 734L1336 712L1337 620L1355 602L1358 621L1358 593L1364 583L1358 571ZM1058 534L1056 535L1056 537L1053 543L1055 542L1056 538L1058 536ZM1034 534L1034 535L1038 535L1038 534ZM1027 534L1027 535L1031 535L1031 534ZM829 534L827 535L824 535L824 536L827 536L829 535ZM913 531L914 533L913 536L917 538L917 542L915 545L912 545L912 546L913 546L915 548L917 548L918 546L918 541L919 540L919 538L917 538L916 537L916 534L917 533L919 533L919 532L917 532L917 533L915 534L914 533L914 531ZM1062 527L1060 528L1059 531L1060 531ZM1144 518L1145 517L1148 517L1150 519L1150 521L1156 521L1157 519L1165 521L1169 524L1172 525L1174 529L1178 529L1180 530L1187 537L1187 539L1186 540L1184 540L1183 539L1175 539L1172 537L1172 535L1171 534L1163 530L1161 530L1157 527L1155 527L1154 526L1150 526L1147 524L1147 521L1145 521L1144 520ZM1141 517L1142 525L1140 527L1132 526L1134 529L1141 529L1142 533L1144 530L1155 531L1163 534L1165 537L1159 539L1122 538L1120 534L1120 537L1117 539L1102 539L1100 541L1099 548L1093 551L1100 559L1100 599L1094 603L1096 608L1093 611L1086 598L1088 594L1085 593L1083 587L1083 569L1090 549L1098 537L1117 522L1129 518ZM945 518L943 518L943 520L942 521L943 526L944 526L944 521L945 520L946 520L947 522L949 522L949 520L946 520ZM1069 516L1068 516L1066 518L1064 522L1066 522L1066 520L1069 517ZM1125 508L1103 518L1082 540L1073 563L1073 592L1083 617L1101 636L1080 607L1079 597L1113 633L1133 640L1152 640L1183 625L1197 607L1203 590L1204 567L1199 551L1179 526L1144 514L1104 526L1083 560L1082 593L1077 594L1074 567L1086 539L1103 521ZM1195 507L1195 508L1208 520L1210 524L1213 527L1213 528L1217 533L1218 536L1220 537L1220 535L1216 527L1213 524L1213 523L1201 511L1200 511L1197 508L1197 507ZM943 507L942 507L941 511L943 511ZM946 503L946 510L947 511L949 511L948 503ZM940 501L940 503L942 504L942 501ZM731 503L733 502L737 502L737 501L733 501L731 502ZM919 500L919 501L922 501L922 499L920 499ZM870 499L870 504L871 504L871 499ZM1157 497L1157 499L1172 503L1177 507L1183 509L1200 523L1200 525L1206 531L1215 548L1218 558L1221 582L1222 572L1219 555L1214 541L1203 524L1200 523L1199 520L1197 520L1196 517L1186 509L1168 499ZM1149 496L1149 498L1154 498L1153 496ZM1144 494L1112 501L1082 523L1068 547L1062 578L1068 608L1082 632L1109 652L1142 660L1145 656L1113 651L1098 644L1084 632L1069 605L1064 575L1069 550L1084 524L1104 507L1132 498L1144 499ZM950 492L948 493L945 493L945 494L946 494L947 496L946 497L943 497L943 499L945 499L946 497L949 497L949 494ZM792 492L790 492L789 493L785 493L784 494L781 494L780 495L776 495L775 496L769 496L765 498L761 498L761 499L769 498L770 497L775 497L776 496L780 496L784 494L792 493ZM997 485L995 485L994 486L995 489L996 489ZM975 485L976 489L978 489L978 487L977 487L976 485ZM833 483L823 483L819 485L812 485L811 486L809 486L808 487L800 489L800 490L802 489L805 489L806 488L814 487L815 486L822 486L823 485L833 485ZM919 482L919 485L922 485L922 483L921 482ZM912 479L912 482L914 482L914 480ZM1137 479L1137 480L1140 480L1142 482L1144 481L1154 481L1154 480L1150 480L1149 479L1145 479L1144 478L1142 478L1141 479ZM1356 474L1356 484L1351 488L1351 490L1353 490L1356 492L1356 531L1358 531L1358 492L1361 490L1361 488L1358 483L1358 478L1357 477L1357 474ZM919 473L919 477L920 477L920 473ZM1168 472L1168 481L1167 482L1163 482L1163 483L1165 483L1168 486L1169 486L1170 485L1170 483L1169 482L1169 472ZM969 470L970 473L971 473L970 470ZM998 465L998 467L999 468L1001 468L1001 467L999 465ZM946 448L944 452L944 467L942 470L942 475L941 477L943 477L945 479L945 480L942 483L942 486L944 486L944 484L947 481L948 481L948 480L945 478L945 472L946 471L946 469L949 467L949 461L950 460L949 458L947 458L945 456L945 453L946 452L949 453L949 449ZM934 448L936 447L937 448L937 450L935 451L934 450ZM1143 447L1142 449L1144 450L1145 448ZM935 441L937 442L937 445L936 446L934 446L933 445ZM945 438L945 443L950 443L949 439ZM972 421L971 423L973 424L973 421ZM1293 421L1290 431L1285 439L1279 444L1267 449L1258 449L1255 447L1255 445L1252 444L1249 446L1245 444L1237 435L1244 429L1246 431L1249 431L1249 427L1246 422L1247 420L1249 420L1252 425L1255 425L1256 419L1261 422L1261 424L1251 432L1257 432L1260 437L1265 437L1268 433L1273 432L1268 430L1264 426L1264 422L1268 418L1271 420L1271 425L1274 424L1277 418L1279 419L1276 431L1278 431L1282 426L1285 414L1289 414L1290 420ZM943 411L942 412L942 418L943 419L943 425L944 426L944 433L945 433L945 430L946 429L945 425L947 424L947 423L945 419L944 411ZM1234 409L1240 409L1241 410L1241 417L1240 418L1233 418L1232 417L1232 412ZM1261 405L1261 406L1259 408L1252 407L1249 413L1248 414L1246 413L1246 410L1247 408L1252 402L1257 402ZM1283 401L1286 401L1287 400L1289 401L1291 405L1291 407L1292 408L1292 410L1291 411L1289 411L1288 409L1282 403ZM1353 400L1353 401L1357 402L1357 401ZM1261 403L1261 400L1262 399L1265 399L1266 400L1266 401L1264 402L1263 404ZM1236 401L1238 399L1241 400L1243 402L1243 403L1242 404L1237 404L1236 403ZM1271 393L1274 389L1276 389L1280 392L1281 392L1283 394L1283 395L1281 397L1276 397L1275 398L1273 398L1271 396ZM1054 382L1054 383L1058 383L1058 382ZM1017 380L1017 381L1022 381L1022 380ZM1026 379L1026 380L1030 380L1030 379ZM1033 379L1033 380L1051 380L1051 379L1043 379L1042 378L1039 378L1038 379ZM987 371L989 370L990 372L988 373ZM1353 369L1353 370L1355 371L1355 373L1357 373L1357 371L1355 371L1354 369ZM1345 369L1345 371L1349 372L1349 370ZM1333 368L1334 371L1336 371L1336 370L1334 368ZM1218 367L1218 368L1222 369L1222 368ZM1101 367L1101 370L1102 371L1105 370L1105 369ZM1093 367L1093 368L1097 369L1097 367ZM972 361L971 362L971 366L972 367L972 370L973 370L973 368L974 367L974 363L973 361ZM1458 358L1458 359L1461 359L1463 360L1463 358ZM1452 356L1452 357L1455 358L1455 357ZM1284 356L1286 355L1287 357L1285 358ZM1245 356L1246 355L1248 356L1254 356L1256 357L1257 359L1256 360L1254 359L1247 359L1245 357ZM619 356L619 357L624 357L624 356ZM854 355L852 356L852 358L854 358ZM615 355L613 356L610 356L610 357L615 357ZM1414 353L1414 354L1418 353L1421 355L1426 355L1426 354L1421 354L1418 352L1415 352ZM1396 350L1396 351L1399 351L1400 352L1404 353L1403 351ZM1220 350L1221 349L1232 350L1233 351L1236 351L1239 353L1241 353L1243 354L1244 356L1243 357L1229 356L1228 355L1224 354L1222 352L1221 352ZM1251 350L1253 348L1259 348L1261 350L1261 352L1263 352L1264 351L1268 352L1269 353L1269 356L1266 358L1262 356L1257 356L1255 354L1252 353L1251 352ZM824 349L824 350L828 350L828 349ZM1373 348L1373 349L1385 349L1385 348ZM1236 348L1237 347L1240 347L1241 348L1245 348L1246 347L1248 347L1249 348L1249 350L1248 351L1240 351L1239 350L1237 350ZM1232 347L1234 346L1235 348L1233 349ZM1131 347L1132 346L1134 346L1135 348L1134 349L1132 349ZM738 345L738 346L744 346L744 345ZM708 345L708 346L710 346L713 348L716 348L719 350L721 349L721 348L719 348L718 347L715 347L714 346ZM1255 344L1257 343L1258 345L1256 346ZM1117 343L1118 342L1120 342L1121 344L1120 345L1118 345ZM1082 344L1084 342L1088 342L1089 344L1097 344L1098 345L1105 345L1106 344L1109 344L1113 346L1120 347L1121 348L1121 352L1118 354L1107 354L1106 353L1104 353L1100 351L1096 351L1095 350L1089 349L1085 346L1083 346ZM1207 342L1208 341L1214 341L1215 343L1214 344L1208 344ZM1346 342L1349 340L1353 340L1355 341L1356 343L1355 344L1347 344ZM1252 340L1254 341L1254 343L1253 344L1251 344L1250 343L1250 342ZM848 341L850 340L851 341L851 343L849 344L848 343ZM975 338L976 341L978 341L980 339L980 338ZM1387 336L1388 335L1392 335L1393 337L1392 338L1388 338ZM1372 333L1374 332L1375 333L1379 334L1381 336L1381 338L1380 339L1376 339L1375 338L1373 338L1372 337ZM716 333L716 334L718 334L722 336L726 336L727 337L730 337L731 338L734 338L735 339L739 340L739 339L735 337L727 336L726 335L723 335L722 334ZM1386 331L1388 330L1389 332L1387 333ZM769 330L770 329L773 329L774 330L777 330L778 331L785 331L786 332L792 333L793 334L798 334L799 336L798 337L792 337L791 336L781 336L780 335L775 335L774 334L771 334L769 332ZM757 328L758 327L762 327L763 329L762 330L758 330ZM1066 327L1059 327L1058 328L1055 328L1054 329L1048 330L1047 331L1034 331L1034 332L1047 332L1048 331L1050 331L1054 329L1057 329L1058 328L1066 328ZM727 325L725 325L724 327L721 327L721 328L725 328L727 329ZM1242 325L1252 323L1276 324L1277 335L1278 335L1278 325L1280 324L1281 332L1283 335L1286 334L1286 332L1284 332L1282 328L1282 325L1284 323L1287 324L1302 323L1307 328L1307 337L1294 339L1263 338L1262 330L1261 330L1261 334L1259 338L1252 338L1250 335L1249 339L1243 339L1242 338ZM1170 320L1172 319L1173 321L1171 322ZM1374 319L1376 318L1377 319L1379 319L1380 321L1379 322L1376 322L1374 320ZM1175 318L1177 319L1177 323L1176 324L1174 323L1174 319ZM1125 318L1127 317L1128 318L1128 320L1126 321L1125 320ZM1135 316L1136 316L1138 318L1138 320L1136 322L1134 321L1134 317ZM1130 316L1132 317L1132 327L1131 328L1129 327L1129 317ZM1031 317L1031 318L1045 318L1045 317ZM1304 315L1306 316L1309 316L1311 315L1313 317L1315 317L1317 319L1316 321L1316 324L1318 328L1317 330L1317 334L1318 335L1318 337L1316 339L1310 339L1308 337L1308 333L1310 331L1311 331L1311 330L1310 330L1309 328L1311 327L1311 326L1310 325L1308 325L1307 324L1307 322L1302 322L1301 321ZM1301 316L1301 319L1298 322L1296 322L1295 321L1290 321L1289 322L1287 322L1286 321L1286 317L1287 316L1289 316L1290 318L1291 318L1292 316L1294 316L1295 315L1300 315ZM1271 316L1272 315L1281 315L1285 317L1285 320L1284 321L1280 321L1279 320L1279 318L1272 318ZM1238 320L1238 317L1239 316L1252 316L1253 315L1269 315L1270 316L1269 319L1267 321L1239 321ZM1210 319L1210 317L1212 315L1214 316L1225 316L1226 317L1225 319L1213 319L1212 320ZM1197 317L1201 315L1203 316L1207 315L1208 316L1208 320L1207 321L1205 321L1204 319L1198 319ZM1179 317L1181 315L1189 315L1190 316L1190 320L1189 321L1180 321L1179 320ZM1166 315L1168 316L1168 322L1167 323L1165 323L1164 322L1164 319ZM1098 317L1100 315L1121 315L1123 317L1123 320L1122 321L1116 321L1114 319L1107 319L1106 320L1104 320L1103 319L1099 319ZM1053 316L1051 316L1049 317L1049 318L1051 318L1053 317ZM1387 313L1388 313L1390 315L1390 316L1394 321L1394 330L1395 330L1395 325L1396 324L1397 324L1401 329L1401 335L1402 336L1401 338L1397 338L1396 337L1395 333L1393 333L1390 329L1390 328L1387 325L1386 323L1386 314ZM1332 315L1332 313L1333 312L1335 312L1336 313L1336 314L1334 316ZM1029 309L1029 310L1034 310L1034 309ZM1038 310L1040 310L1041 309L1046 309L1049 307L1060 307L1061 306L1063 306L1063 305L1061 305L1060 306L1053 306L1052 305L1050 305L1049 306L1044 307L1041 309L1038 309ZM773 305L773 306L777 307L777 306ZM1377 302L1378 302L1381 305L1381 313L1380 314L1379 314L1376 311L1376 303ZM1362 303L1363 302L1365 302L1366 304L1365 305L1363 305ZM1149 302L1153 302L1154 303L1154 304L1152 305L1152 307L1155 309L1155 312L1159 316L1161 316L1163 319L1163 323L1158 326L1153 326L1152 325L1150 326L1146 326L1144 324L1141 325L1139 323L1139 319L1140 318L1143 319L1147 314L1147 307L1148 306L1148 303ZM828 302L828 303L836 306L836 305L834 305ZM1076 300L1078 301L1079 309L1082 312L1086 314L1091 315L1092 316L1092 320L1091 321L1083 320L1080 318L1078 314L1078 312L1076 309L1075 304L1074 303L1074 302ZM1300 302L1304 302L1306 301L1308 302L1309 304L1310 304L1313 301L1313 300L1305 300L1303 299L1301 301L1300 301ZM1196 299L1196 301L1198 301L1199 300L1199 299ZM1368 296L1370 297L1370 300L1369 301L1367 300L1367 297ZM1343 292L1349 297L1356 307L1356 317L1361 317L1362 318L1362 327L1363 327L1363 319L1364 318L1369 322L1371 331L1371 337L1370 338L1364 338L1363 337L1364 331L1359 332L1359 333L1362 334L1361 338L1355 338L1354 339L1349 337L1345 339L1333 339L1332 338L1332 318L1339 313L1338 311L1333 311L1332 310L1332 303L1336 301L1339 301ZM931 293L933 292L934 294L932 295ZM926 292L926 419L922 454L917 455L922 458L919 469L924 468L926 488L921 549L923 619L917 618L923 631L923 672L911 678L914 682L909 689L908 293ZM938 291L953 292L954 685L948 684L947 693L940 679L940 632L951 630L941 625L940 612L950 609L950 598L938 607L938 589L943 596L945 588L951 593L945 582L943 589L938 585L938 570L945 575L949 567L944 561L951 560L944 556L944 567L939 567L950 534L943 529L942 538L937 528ZM1367 289L1368 289L1370 292L1370 294L1369 295L1368 295L1366 293L1366 290ZM1059 290L1051 293L1050 295L1051 295L1052 297L1053 297L1059 291ZM1090 286L1090 287L1092 287L1093 288L1107 288L1108 287L1115 287L1117 288L1118 287L1118 286ZM950 287L949 289L947 289L946 290L931 290L930 289L913 289L912 288L913 286L932 286L933 285L943 285L944 286L949 286ZM1356 285L1358 284L1359 286L1357 287ZM793 282L793 283L797 284L797 283ZM1333 279L1334 279L1337 282L1337 283L1342 289L1342 292L1341 293L1341 295L1339 299L1335 301L1333 301L1332 300L1332 280ZM917 281L918 280L921 280L922 279L935 279L936 280L950 280L951 282L950 283L938 283L937 284L932 284L931 283L918 283ZM778 278L778 279L790 282L790 281L787 281L786 280L783 280L780 278ZM1362 277L1363 276L1369 276L1370 277L1370 284L1368 285L1362 278ZM1328 276L1330 277L1330 337L1329 338L1327 337L1327 277ZM1292 276L1324 276L1325 277L1325 337L1324 338L1320 337L1321 334L1320 321L1317 314L1313 310L1305 308L1302 306L1291 308L1286 307L1286 286L1287 285L1291 285L1292 287L1294 286L1293 279L1291 278ZM1242 277L1243 276L1274 276L1275 278L1268 284L1264 284L1252 279L1250 279L1250 280L1257 282L1271 289L1273 291L1274 296L1279 295L1280 296L1279 300L1280 307L1279 308L1264 308L1261 306L1261 304L1263 303L1263 298L1265 296L1266 292L1265 291L1255 301L1250 302L1250 306L1248 308L1243 308L1242 307ZM1225 271L1224 270L1224 267L1223 267L1223 270L1222 271L1188 271L1188 272L1225 272ZM1076 266L1078 267L1078 272L1077 273L1075 272L1075 267ZM922 267L923 266L926 266L927 265L935 265L936 266L940 266L941 267L941 270L943 270L944 271L944 273L946 275L946 276L943 278L941 278L940 277L940 275L938 275L938 277L937 278L930 278L929 277L925 278L924 277L925 275L925 270L923 270L922 269ZM1345 265L1347 264L1350 267L1350 269L1349 270L1346 270L1344 268ZM1367 263L1368 262L1373 262L1374 263L1374 268L1372 270L1368 270L1367 269ZM1354 262L1355 261L1363 262L1364 263L1364 269L1363 270L1355 270L1354 269ZM1349 262L1351 261L1352 263L1350 264ZM1327 261L1329 261L1330 262L1330 265L1328 269L1326 268L1326 262ZM1322 261L1324 262L1324 268L1323 269L1320 269L1319 268L1319 266L1321 265L1321 262ZM1292 262L1293 261L1296 261L1297 262L1297 265L1293 267L1292 266ZM1274 262L1275 261L1289 261L1290 262L1290 268L1289 269L1275 269L1274 268ZM1261 262L1262 261L1266 261L1267 262L1267 266L1266 267L1264 267L1262 265ZM1238 262L1239 261L1243 261L1246 263L1246 268L1245 269L1239 269L1238 268ZM924 260L925 259L939 259L940 260L940 262L939 263L935 263L934 264L926 264L924 262ZM1346 258L1348 257L1349 259L1347 260ZM1292 257L1293 256L1296 256L1297 258L1296 259L1293 259ZM1274 256L1275 255L1278 255L1279 257L1278 258L1275 258ZM1367 256L1371 253L1373 253L1374 254L1374 258L1373 259L1368 259L1367 258ZM1238 257L1240 253L1244 254L1246 256L1246 258L1245 259L1239 259ZM1354 253L1355 252L1360 252L1361 253L1361 258L1360 259L1355 259L1354 258ZM1348 253L1349 252L1351 252L1352 253L1352 256L1350 257ZM1333 252L1334 252L1338 256L1336 260L1333 260L1332 259L1332 253ZM1327 251L1329 252L1329 258L1328 259L1326 258L1326 252ZM1312 252L1313 251L1322 251L1323 253L1322 254L1318 254L1316 256L1314 256ZM1305 251L1307 251L1308 252L1308 257L1307 258L1304 258L1303 257L1303 253ZM1281 252L1282 251L1289 251L1290 252L1290 258L1289 259L1282 259L1281 258ZM1256 252L1257 251L1266 252L1267 253L1267 258L1266 259L1263 259L1262 258L1257 258L1256 257L1257 255ZM950 258L963 250L993 249L998 257L1014 253L1015 266L1021 269L1026 250L1031 256L1039 256L1043 250L1065 250L1069 255L1066 309L1071 313L1057 317L1073 316L1079 322L1072 326L1116 324L1117 330L1111 332L1118 334L1135 326L1177 331L1182 323L1235 324L1236 337L988 338L987 296L964 293L964 278L949 273ZM944 250L944 254L942 256L922 256L921 255L921 251L922 250L926 250L928 252L928 253L929 253L929 251L930 250L936 250L937 249L943 249ZM955 242L956 242L958 244L958 252L957 253L955 253L954 252L954 243ZM1042 246L1042 242L1043 241L1057 241L1058 242L1058 244L1057 245L1055 245L1052 247L1043 247ZM1019 246L1020 245L1020 243L1023 241L1028 241L1029 242L1029 247L1028 248L1020 248ZM960 246L960 243L963 241L974 241L975 242L988 242L989 241L995 241L996 242L995 246L993 248L991 248L990 247L980 247L979 245L971 245L970 246L966 246L965 247L961 247ZM1178 241L1178 242L1184 242L1184 241ZM1036 240L1038 241L1038 252L1037 253L1035 252L1035 241ZM1198 240L1196 241L1196 243L1198 243ZM1169 241L1169 242L1172 242L1172 240L1170 240ZM999 239L1001 240L1001 249L1000 250L998 249L998 240ZM1257 235L1268 235L1269 236L1269 239L1268 240L1268 247L1266 249L1254 249L1253 248L1253 242L1254 241L1256 241L1256 236ZM915 238L915 236L916 235L927 235L928 236L928 237L925 240L923 240L922 241L920 240L917 240ZM1283 235L1284 234L1291 234L1292 236L1291 237L1289 237L1289 239L1293 239L1295 241L1296 241L1297 242L1297 247L1296 248L1292 248L1291 249L1282 248L1281 247L1281 242L1284 239L1285 239L1285 237L1284 237ZM920 243L921 242L927 242L930 244L935 244L937 242L939 242L939 240L933 235L933 233L934 232L943 232L944 233L943 239L948 239L949 241L950 241L952 243L952 247L951 248L949 248L949 250L947 252L946 252L945 251L945 248L922 248L921 247ZM1286 231L1287 230L1289 230L1290 232L1289 233L1287 233ZM1341 229L1343 228L1344 230L1342 231ZM1252 222L1253 222L1254 224L1256 225L1256 228L1255 229L1252 229L1251 228L1251 223ZM923 222L925 221L926 219L933 219L934 218L941 219L942 220L942 229L941 230L927 229L925 226L925 224L924 224ZM928 213L929 212L931 212L932 213L939 213L940 215L939 216L929 216L928 215ZM1382 213L1383 215L1385 214L1388 214L1388 213L1385 213L1384 212ZM1284 212L1285 214L1288 214L1289 213L1292 214L1292 212ZM1215 213L1215 214L1219 214L1220 213L1222 213L1223 214L1223 217L1224 217L1224 215L1225 214L1225 212L1216 212ZM1170 211L1170 214L1172 214L1172 212ZM1358 204L1361 204L1363 206L1363 207L1361 208L1361 225L1360 226L1361 228L1361 243L1364 245L1364 248L1363 249L1358 249L1357 248L1357 243L1358 242L1358 240L1357 239L1357 223L1358 222L1357 220L1357 210L1358 209L1357 205ZM1257 204L1258 205L1258 212L1257 213L1253 213L1252 211L1254 209L1254 206L1256 204ZM1175 204L1175 209L1178 209L1178 208L1176 206L1176 204ZM1349 201L1351 201L1353 204L1355 204L1356 205L1356 240L1354 242L1351 242L1351 243L1355 243L1356 244L1356 248L1355 249L1348 249L1345 247L1342 247L1341 246L1341 244L1342 243L1347 243L1345 240L1343 241L1341 240L1341 234L1342 233L1346 234L1345 225L1347 224L1347 222L1345 221L1345 217L1347 215L1348 210L1349 209L1349 208L1342 208L1341 207L1341 205L1342 204L1347 204ZM1211 212L1199 212L1197 208L1198 203L1196 202L1195 203L1195 207L1197 208L1197 211L1196 212L1194 212L1193 211L1191 212L1184 212L1183 210L1184 209L1185 205L1181 205L1181 211L1180 212L1176 212L1176 213L1178 213L1179 214L1181 214L1182 213L1184 213L1185 214L1187 213L1195 214L1197 216L1197 220L1196 221L1196 222L1197 222L1197 220L1198 219L1198 215L1199 214L1203 214L1204 213L1207 213L1209 214L1211 213ZM1323 198L1326 198L1327 199L1331 198L1333 200L1336 211L1334 212L1334 213L1336 215L1336 219L1334 220L1334 222L1336 223L1336 228L1334 229L1334 230L1337 232L1337 240L1334 241L1334 242L1336 242L1337 244L1334 245L1331 249L1314 249L1313 248L1314 245L1320 242L1318 239L1318 235L1319 234L1318 231L1319 228L1317 227L1317 224L1318 223L1318 214L1319 213L1324 213L1324 212L1318 212L1317 210L1318 209L1318 200ZM1213 197L1213 200L1217 199L1216 197ZM1158 196L1160 195L1161 197L1159 198ZM997 197L997 225L996 228L993 229L991 233L964 233L963 232L963 229L961 228L960 225L952 225L951 226L949 225L949 220L950 219L950 207L951 206L957 206L958 205L958 201L961 200L963 197L976 198L977 196L980 194L983 194L986 196L996 196ZM946 196L947 195L951 194L952 195L952 199L951 200L948 200L946 198ZM1184 194L1185 193L1188 193L1189 195L1188 196L1185 196ZM1162 192L1164 190L1168 190L1170 192L1170 195L1168 196L1166 193L1163 194ZM1331 190L1332 189L1342 189L1346 192L1350 192L1351 193L1351 195L1349 197L1342 201L1341 200L1340 196L1332 192ZM1188 189L1190 187L1194 187L1195 188L1195 191L1192 193L1189 193L1188 192ZM1253 186L1257 186L1258 187L1258 197L1257 198L1252 198L1251 197L1251 188ZM1157 187L1158 186L1160 186L1161 188L1160 189L1158 189ZM1148 188L1151 186L1153 186L1156 190L1159 190L1161 189L1162 190L1162 192L1160 194L1155 194L1154 192L1149 190ZM1414 185L1414 186L1420 186L1420 185ZM1301 184L1302 186L1304 186L1304 184ZM926 179L930 179L931 180L939 180L940 181L940 183L941 184L941 202L940 203L940 209L939 210L929 210L928 211L926 211L923 209L923 199L924 198L924 181ZM1176 179L1178 178L1179 180L1177 181ZM1151 178L1153 177L1154 179L1152 180ZM1091 178L1092 180L1091 184L1093 184L1093 181L1092 180L1092 178ZM1189 178L1189 177L1192 175L1194 176L1194 177L1191 179ZM1343 177L1344 176L1348 177L1349 174L1351 173L1352 174L1353 179L1355 179L1356 180L1356 183L1354 184L1353 182L1351 181L1349 182L1346 182L1345 181L1345 179L1344 179ZM1179 173L1181 172L1182 174L1180 175ZM1340 174L1340 172L1341 171L1344 171L1345 172L1348 171L1349 172L1347 176L1341 175ZM1251 172L1252 171L1257 172L1258 173L1258 177L1257 178L1253 179L1251 177ZM1247 169L1249 173L1249 178L1247 180L1246 180L1246 182L1244 184L1236 184L1235 183L1236 181L1238 181L1242 178L1244 178L1243 176L1243 172L1245 171L1246 169ZM1149 168L1151 167L1152 169L1150 170ZM1353 167L1355 166L1356 168L1354 169ZM1195 167L1197 166L1198 168L1196 169ZM1275 165L1276 166L1276 170L1277 171L1277 174L1275 178L1277 180L1277 182L1275 184L1262 184L1261 183L1261 181L1262 180L1264 180L1264 173L1270 167L1272 167L1274 165ZM1241 165L1243 164L1244 166L1242 167ZM1388 163L1389 165L1387 167L1386 167L1385 165L1387 163ZM1319 164L1320 163L1324 163L1325 165L1321 167L1319 165ZM1152 166L1152 164L1153 163L1155 163L1156 164L1156 165L1154 167ZM1317 162L1319 161L1320 163L1318 164ZM1172 162L1170 163L1170 165L1172 164ZM1371 161L1368 162L1366 164L1366 165L1368 165L1368 164L1370 162L1371 162ZM1391 160L1393 159L1394 161L1392 162ZM1330 179L1331 177L1330 171L1332 170L1330 166L1331 164L1331 161L1330 159L1331 158L1342 158L1344 162L1345 162L1344 160L1345 158L1355 158L1356 159L1356 161L1354 164L1351 164L1349 163L1347 165L1347 170L1346 171L1345 171L1344 170L1344 168L1342 167L1338 168L1339 172L1338 173L1336 173L1334 175L1334 179L1333 180L1331 180ZM1325 159L1327 158L1328 159L1328 161L1326 162L1325 161ZM1310 158L1317 164L1313 166L1310 163L1311 166L1324 168L1325 165L1329 165L1329 179L1325 183L1320 181L1320 177L1323 176L1321 172L1320 177L1314 176L1316 181L1307 184L1321 188L1308 197L1308 221L1301 223L1303 229L1308 232L1308 247L1303 249L1300 247L1300 235L1294 228L1285 226L1277 232L1273 227L1263 224L1268 218L1261 212L1261 190L1270 185L1296 185L1290 184L1289 181L1279 184L1278 174L1281 172L1282 178L1288 174L1307 177L1303 174L1306 168L1302 166L1304 161L1301 159ZM1236 158L1237 160L1235 161L1235 163L1233 165L1232 165L1231 164L1232 160ZM1228 158L1229 160L1227 162L1226 162L1225 160L1227 158ZM1218 159L1219 158L1221 158L1222 160L1221 161L1219 161ZM1205 159L1206 158L1208 158L1209 159L1209 161L1207 162L1205 160ZM1156 163L1157 161L1163 162L1162 160L1163 158L1179 158L1180 159L1182 159L1183 158L1203 158L1204 159L1203 165L1202 166L1199 164L1195 164L1193 166L1191 166L1190 167L1189 167L1186 164L1184 165L1181 165L1182 168L1186 168L1187 170L1186 171L1180 171L1179 172L1177 172L1177 174L1176 175L1173 175L1170 173L1171 169L1167 170ZM1153 159L1155 158L1156 160L1154 161ZM1150 158L1151 159L1151 162L1150 163L1148 163L1148 165L1146 166L1145 165L1145 159L1146 158ZM1064 156L1065 158L1067 157L1067 156ZM927 155L935 155L936 156L936 158L938 158L939 159L939 164L941 164L942 165L942 167L939 169L939 176L938 177L929 177L928 178L926 178L924 176L924 173L922 171L922 169L924 166L924 163L922 162L922 159L923 158L925 158ZM918 156L919 155L921 155L922 157L921 158L919 158ZM1109 154L1110 153L1114 153L1115 155L1114 156L1110 156ZM1099 154L1101 153L1102 155L1100 156ZM1022 161L1032 153L1141 157L1142 168L1116 185L1141 177L1143 237L1147 191L1151 203L1171 207L1183 188L1177 201L1192 208L1199 187L1248 187L1246 239L1223 231L1221 241L1201 241L1237 239L1229 257L1236 307L1162 304L1154 273L1175 261L1150 255L1145 240L1142 257L1126 262L1147 274L1140 299L1121 308L1086 306L1086 299L1120 299L1084 293L1084 249L1075 236L1043 233L1040 225L1026 232ZM1346 151L1348 150L1349 152L1347 153ZM919 149L920 148L941 148L942 149L942 151L941 152L932 152L931 153L920 153L919 152ZM1358 147L1359 146L1361 146L1362 147L1361 150L1363 151L1367 149L1368 150L1367 154L1366 155L1361 155L1360 154L1360 152L1358 151ZM1354 146L1356 147L1356 154L1355 155L1351 155L1350 154L1350 151L1353 149L1353 147ZM1100 147L1102 146L1103 147L1103 149L1101 150L1100 149ZM927 143L928 142L946 142L947 143L947 145L946 146L928 146L927 145ZM1361 142L1362 141L1364 142L1368 142L1369 144L1367 146L1363 146ZM1450 138L1450 139L1454 139L1456 140L1456 138ZM1411 138L1412 137L1414 137L1416 138L1418 140L1418 141L1417 142L1415 141L1412 141L1411 140ZM933 138L935 137L936 139L934 140ZM1365 135L1367 134L1369 136L1369 137L1368 138L1366 138L1365 137ZM1096 134L1098 133L1099 135L1097 136ZM1103 132L1105 131L1106 133L1104 134ZM1451 124L1453 123L1454 125L1452 126ZM1072 121L1074 120L1075 122L1073 123ZM1069 117L1070 119L1068 121L1067 121L1066 119L1068 117ZM931 116L932 116L934 118L934 123L933 124L930 124L929 123L929 119ZM1470 116L1472 115L1473 116L1473 118L1471 119L1470 118ZM930 112L931 111L933 111L934 113L933 114L931 114ZM1464 108L1465 107L1468 107L1469 109L1474 108L1475 109L1475 111L1472 114L1470 114L1467 112L1465 112L1464 111ZM1020 104L1018 105L1018 107L1019 107ZM1011 104L1010 107L1014 107L1014 104ZM1472 102L1474 101L1475 103L1473 104ZM1057 101L1058 101L1060 103L1060 105L1059 106L1057 106L1055 104L1055 103ZM1061 100L1063 99L1064 100L1064 102L1062 103L1061 102ZM1052 99L1053 99L1055 101L1053 105L1051 105L1050 104L1050 101ZM1040 100L1044 99L1045 103L1048 99L1049 103L1044 109L1049 106L1056 106L1056 116L1061 114L1065 117L1065 124L1055 126L1068 127L1067 123L1071 122L1073 128L1084 130L1082 134L1089 128L1092 140L1078 140L1079 143L1077 146L1081 147L1080 150L1056 150L1054 144L1052 144L1051 150L1041 150L1039 117ZM892 100L893 99L897 99L898 101L897 102L893 102ZM1486 99L1488 98L1489 100L1487 101ZM1018 92L1019 94L1021 93L1024 93L1024 92L1022 91ZM1045 85L1047 84L1048 86L1046 87ZM1041 83L1043 84L1043 88L1046 90L1046 93L1048 93L1049 94L1049 96L1048 97L1042 97L1040 95L1040 84ZM1012 83L1012 85L1014 86L1013 83ZM1006 83L1004 84L1004 86L1006 86ZM1028 82L1030 81L1031 83L1029 84ZM1040 78L1040 76L1041 75L1043 75L1044 76L1044 77L1042 79ZM1028 73L1030 72L1031 74L1029 75ZM1026 68L1026 67L1029 65L1031 66L1031 67L1028 69ZM1023 64L1025 65L1025 68L1024 69L1022 68L1022 65ZM1021 62L1022 63L1021 66L1019 68L1019 69L1017 71L1016 71L1014 69L1014 65L1015 64L1019 64L1019 63ZM1041 61L1043 60L1044 61L1044 63L1042 64L1041 63ZM1014 60L1016 59L1017 60L1017 62L1015 63L1014 62ZM1021 59L1023 58L1024 60L1022 61ZM1007 54L1009 53L1010 55L1008 56ZM1007 47L1008 49L1005 53L1003 53L1002 52L1002 50L1004 49L1005 47ZM995 34L996 33L998 33L998 30L999 29L1001 30L1003 29L1006 29L1007 31L1009 31L1011 33L1010 35L1010 39L1008 41L1006 41L1005 40L1005 38L1002 35L1002 34L999 35L998 37L996 37L995 36ZM991 30L989 30L987 31L987 32L990 32ZM991 26L991 27L994 28L994 27ZM1010 22L1011 24L1009 26L1008 26L1007 24L1009 22ZM1490 0L981 0L1017 232L929 68L875 338L682 312L874 355L875 884L704 882L870 895L796 982L878 1010L880 296L905 1044L960 296L985 989L1119 953L996 893L1330 855L1242 879L1209 786L989 889L989 482L1104 488L993 478L987 382L1256 364L1077 384L1118 484L1133 402L1357 468L1261 345L1470 338L1358 159L1490 157L1389 150L1490 120Z" fill="#a57428" opacity="0.4" filter="url(#glow)"/><path d="M1121 997L1121 998L1132 998L1132 997ZM1100 996L1100 997L1104 997L1104 996ZM942 978L938 979L938 980L940 980L942 979ZM922 978L923 980L929 980L930 981L933 981L933 979L924 979ZM1018 975L1018 976L1022 977L1021 974ZM1119 974L1119 975L1120 975L1122 977L1125 977L1127 976L1127 975L1124 975L1122 973L1122 972L1121 972ZM857 970L838 970L837 971L828 971L827 972L821 972L817 974L814 974L813 975L811 975L811 976L818 975L820 973L828 973L829 972L841 972L842 971L850 971L852 972L853 971L857 971ZM921 960L923 959L924 961L922 962ZM941 958L943 957L944 958L944 960L942 961L941 960ZM923 957L925 956L926 957L926 959L924 960L923 959ZM934 956L936 955L937 957L935 958ZM1011 955L1010 957L1012 958L1013 956ZM921 955L923 954L924 956L922 957ZM936 953L937 952L940 953L942 957L940 958L939 956L936 954ZM1099 951L1099 952L1104 952L1104 951ZM756 954L754 954L753 953L753 951L748 953L748 955L750 956L752 955L756 955ZM847 950L847 952L849 952L850 951L850 950ZM921 949L923 948L924 949L924 951L922 952L921 951ZM1096 951L1095 947L1093 947L1093 949L1092 950L1082 949L1082 950L1086 950L1087 951L1091 951L1092 952ZM923 947L925 946L926 948L924 949ZM1066 946L1066 947L1068 949L1070 949L1071 948L1078 949L1078 948L1074 948L1073 947ZM939 946L941 945L942 947L940 948ZM941 942L943 941L944 943L942 944ZM939 939L941 938L942 940L940 941ZM1031 938L1031 939L1034 939L1035 940L1042 941L1042 940L1039 940L1038 939L1034 939L1033 938ZM834 937L831 938L831 939L834 938ZM843 935L843 936L847 936L847 935ZM1206 928L1205 928L1204 930L1202 930L1202 931L1205 932ZM769 925L769 926L771 926L773 928L774 928L773 924L770 924ZM1073 918L1073 916L1069 916L1068 914L1067 914L1066 916L1048 916L1048 917L1065 917L1066 918ZM825 912L825 913L827 913L828 914L831 914L832 913L834 913L835 914L844 914L844 913L841 913L840 912ZM850 911L849 913L852 914L852 912ZM1155 911L1155 912L1160 913L1160 911L1159 910ZM1143 910L1143 912L1147 912L1146 910ZM1130 910L1130 912L1139 912L1139 911L1135 911L1133 909ZM812 909L811 911L812 912L814 912L814 910ZM1009 904L1007 904L1005 905L1005 906L1008 906ZM936 902L937 901L941 901L942 903L941 904L937 904ZM935 895L936 894L940 894L941 895L941 898L940 899L936 899L935 898ZM923 895L924 894L926 894L927 896L926 897L924 897ZM1143 887L1143 889L1145 889L1146 888L1146 887ZM998 884L997 884L995 886L995 887L998 886ZM717 881L716 883L718 884L719 882ZM1250 880L1246 880L1243 882L1241 882L1241 883L1243 883L1247 881L1250 881ZM938 877L939 877L941 879L941 884L942 885L942 890L941 891L938 891L937 890L937 878ZM1194 868L1193 869L1193 871L1194 872L1197 872L1197 868ZM1212 866L1213 867L1213 873L1212 874L1206 874L1205 873L1205 868L1206 867L1210 867ZM1177 867L1178 866L1180 867L1185 867L1186 868L1186 872L1184 874L1182 874L1181 873L1178 874L1177 873ZM1252 864L1250 864L1249 866L1251 866ZM1193 862L1198 862L1200 863L1203 867L1203 873L1199 877L1192 877L1188 873L1188 866ZM1193 858L1194 857L1197 857L1198 859L1197 860L1194 860ZM1022 855L1022 856L1026 857L1026 856ZM1191 854L1192 853L1199 853L1200 855L1199 856L1192 856ZM938 847L940 848L940 850L941 851L941 868L939 870L937 869L937 866L936 865L936 862L938 860L938 858L937 857L937 848ZM1183 837L1183 841L1191 842L1193 844L1193 848L1189 851L1190 861L1186 865L1182 865L1179 861L1175 862L1175 878L1176 880L1180 880L1182 876L1187 876L1194 880L1200 879L1204 876L1209 876L1210 879L1215 880L1215 861L1211 861L1208 865L1205 865L1200 860L1200 858L1202 856L1202 852L1198 849L1198 843L1207 841L1208 838L1205 836ZM1189 824L1203 824L1217 831L1225 840L1230 853L1230 866L1227 876L1223 882L1213 891L1200 896L1189 896L1175 890L1164 877L1161 867L1161 853L1166 840L1174 831L1180 827ZM877 815L877 869L873 871L877 875L873 892L809 883L746 885L809 884L873 894L875 907L871 920L860 921L873 926L869 935L876 958L872 964L876 967L861 970L873 970L878 979L883 936ZM938 813L940 813L941 814L941 841L940 842L938 842L937 841L937 814ZM1210 812L1208 824L1182 823L1158 847L1152 867L1162 877L1154 881L1164 882L1155 886L1172 889L1162 894L1058 886L989 891L985 833L979 931L985 977L989 971L1011 974L987 968L994 935L1028 938L993 933L991 926L1034 921L993 922L987 911L993 893L1055 887L1196 899L1229 886L1224 883L1230 873L1240 870L1232 868L1236 858L1211 825ZM986 809L985 809L985 814L984 816L985 816L986 814ZM934 806L935 805L940 805L942 807L942 808L940 810L935 810L934 809ZM877 806L877 809L876 811L878 812L878 806ZM931 794L932 793L941 793L942 794L942 797L943 797L943 795L945 794L946 795L946 799L945 800L942 800L942 802L940 804L933 804L932 802L934 801L935 799L934 799L933 797L931 796ZM945 778L947 779L947 782L946 783L944 782L944 779ZM941 777L944 782L944 786L942 787L942 790L941 791L935 792L932 790L932 789L934 788L933 785L935 784L935 779L937 777ZM917 777L920 777L922 779L922 786L921 787L918 787L917 786L917 783L915 781L915 779ZM940 763L944 766L944 770L940 773L936 773L935 772L935 768L936 766L939 763ZM1047 758L1047 762L1050 765L1055 765L1057 763L1057 762L1059 761L1059 760L1057 759L1055 756L1049 756ZM984 722L985 724L985 738L984 739L984 749L985 750L985 761L984 762L985 764L985 774L984 775L984 779L985 780L985 794L986 794L986 779L985 778L986 776L986 742L988 739L986 738L986 736L987 735L987 728L986 727L986 723ZM1213 722L1213 720L1211 717L1209 717L1205 720L1202 720L1202 721L1206 722L1209 725L1210 725ZM936 717L937 716L941 716L942 718L941 719L937 719ZM1106 720L1106 721L1107 721L1111 725L1113 726L1117 726L1119 725L1121 721L1123 721L1123 720L1119 719L1115 714L1114 714L1107 720ZM1318 713L1311 713L1311 717L1305 723L1297 722L1297 723L1294 726L1293 726L1287 731L1285 731L1285 732L1289 732L1298 724L1300 725L1305 725L1311 719L1313 718L1316 718L1318 715ZM1280 713L1280 753L1319 754L1320 752L1317 750L1316 723L1310 724L1310 750L1308 752L1305 750L1304 731L1298 731L1298 750L1296 752L1293 751L1292 739L1286 740L1286 751L1284 752L1282 750L1282 713ZM927 709L928 708L934 708L935 707L939 707L941 709L941 713L940 714L932 714L929 711L928 711ZM1335 703L1335 709L1336 709L1336 703ZM933 703L936 700L938 700L940 702L941 705L940 706L934 706L933 705ZM1291 698L1304 697L1317 701L1330 713L1335 723L1336 740L1331 753L1321 764L1308 770L1292 770L1282 766L1272 757L1265 742L1265 726L1270 714L1278 705ZM1296 694L1281 699L1268 711L1262 726L1262 740L1271 760L1276 764L1291 772L1305 773L1318 769L1331 758L1337 747L1340 733L1337 720L1325 703L1309 695ZM937 690L939 691L939 695L938 696L936 695L936 691ZM932 690L934 691L934 695L933 696L931 695L931 691ZM924 691L926 690L927 692L925 693ZM935 673L936 673L938 676L938 681L937 682L935 682L934 681L934 674ZM935 671L937 670L938 672L936 673ZM1157 664L1153 665L1152 666L1150 666L1149 667L1147 667L1147 668L1149 667L1152 667L1155 665L1157 665ZM1244 663L1243 663L1241 665L1238 665L1236 667L1236 669L1235 670L1235 672L1237 674L1237 675L1241 678L1243 678L1244 677L1248 676L1251 672L1251 671L1248 668L1248 667L1246 666L1244 664ZM1178 657L1174 659L1172 659L1171 660L1163 662L1163 663L1165 662L1169 662L1172 660L1174 660L1178 658ZM1134 656L1134 658L1141 658L1142 659L1144 659L1144 656ZM935 653L937 654L937 661L936 662L934 661L934 654ZM1100 645L1101 647L1103 647L1104 649L1108 650L1110 652L1113 652L1114 653L1117 653L1120 655L1124 655L1125 656L1131 657L1131 655L1124 655L1123 654L1120 654L1119 653L1117 653L1115 651L1113 651L1110 649L1108 649L1106 647L1103 647L1101 645ZM1092 640L1092 641L1096 643L1096 642L1094 640ZM1204 639L1203 639L1195 647L1194 647L1192 649L1185 653L1185 654L1188 653L1190 651L1196 648L1204 641ZM1217 623L1216 623L1215 626L1216 626ZM1358 617L1356 617L1356 620L1358 619ZM1084 615L1084 617L1088 622L1088 623L1099 634L1103 635L1103 634L1099 632L1090 623L1088 619L1085 616L1085 615ZM1243 614L1243 618L1244 618L1244 614ZM1080 609L1080 611L1082 613L1083 613L1082 610ZM1089 607L1091 612L1092 612L1092 610L1090 608L1090 607ZM1135 603L1136 602L1149 602L1150 603L1151 610L1150 611L1135 611L1134 610L1135 608ZM1145 593L1146 592L1157 592L1158 591L1174 591L1175 592L1177 591L1182 591L1183 592L1183 598L1180 600L1176 600L1175 599L1146 599L1145 598ZM1102 592L1103 591L1107 591L1108 592L1123 592L1124 591L1135 591L1136 592L1139 592L1140 593L1140 598L1139 599L1115 599L1114 600L1112 599L1104 599L1102 597ZM1074 591L1076 601L1078 605L1079 605L1079 603L1077 600L1076 593L1075 591ZM1202 590L1201 590L1201 593L1200 594L1199 599L1194 609L1192 611L1190 615L1187 618L1187 619L1188 619L1191 616L1195 608L1197 606L1197 604L1200 599L1200 596L1201 595ZM1082 587L1083 596L1085 598L1086 602L1087 602L1086 598L1085 597L1085 595L1084 594L1084 590L1083 589L1083 587ZM1064 587L1064 592L1065 593L1066 601L1069 607L1070 612L1071 612L1071 610L1069 607L1069 604L1066 598L1065 587ZM1221 586L1220 586L1219 591L1220 591L1220 588ZM1243 580L1243 583L1244 583L1245 581ZM1063 578L1062 579L1062 581L1063 583L1064 583L1065 579ZM1331 573L1330 573L1324 579L1322 579L1319 581L1318 583L1319 586L1323 587L1325 585L1325 582L1326 580L1330 576ZM1220 568L1220 574L1221 574L1221 568ZM1073 568L1072 571L1074 572L1074 568ZM1066 560L1064 561L1064 566L1063 567L1063 574L1064 574L1064 571L1065 570L1065 563L1066 562ZM1218 558L1219 560L1219 563L1220 563L1219 558ZM1307 562L1298 575L1298 589L1302 597L1306 599L1309 596L1305 596L1300 587L1300 584L1304 583L1300 580L1301 575L1305 574L1304 569L1307 566L1311 568L1310 564L1314 561L1320 560L1321 564L1323 564L1323 561L1327 560L1334 564L1333 568L1336 566L1339 568L1340 571L1338 573L1341 572L1344 578L1344 581L1340 582L1340 584L1344 584L1341 594L1339 596L1335 595L1339 599L1343 595L1346 588L1346 576L1341 566L1335 561L1323 557L1315 558ZM1166 559L1164 560L1161 565L1159 565L1155 560L1153 555L1152 555L1145 567L1140 570L1138 570L1135 563L1131 557L1130 557L1124 566L1120 566L1115 571L1112 571L1112 572L1116 573L1120 568L1127 567L1129 562L1131 561L1135 568L1135 570L1139 575L1141 575L1142 572L1147 567L1152 559L1154 560L1155 563L1159 568L1162 567ZM1171 553L1169 554L1169 556L1170 556ZM1317 546L1328 546L1342 552L1352 563L1356 573L1356 590L1351 602L1339 613L1328 617L1316 617L1303 612L1296 606L1291 599L1287 587L1288 572L1294 560L1305 550ZM1106 546L1107 545L1178 545L1179 546L1179 588L1171 590L1107 589L1106 588ZM936 545L938 545L939 546L939 550L938 551L935 551L934 550L935 546ZM925 545L927 546L927 549L926 550L924 549L924 546ZM944 544L944 546L949 546L949 544L947 545ZM1306 546L1294 553L1292 558L1283 566L1285 574L1284 579L1281 580L1281 582L1284 583L1287 597L1299 612L1310 618L1321 620L1334 618L1337 621L1337 617L1346 611L1354 600L1357 599L1357 594L1360 586L1360 579L1357 569L1357 558L1354 562L1350 556L1342 549L1330 544L1316 543ZM1179 542L1181 541L1183 543L1183 544L1181 545L1179 543ZM1105 541L1106 543L1104 545L1103 545L1102 543L1104 541ZM1212 541L1212 543L1214 544L1216 553L1218 554L1217 550L1214 544L1214 541ZM1100 542L1100 598L1103 601L1132 602L1132 609L1123 612L1123 617L1162 617L1163 613L1161 611L1154 610L1152 606L1154 601L1172 602L1184 600L1184 540L1103 539ZM1098 536L1097 536L1094 539L1086 553L1085 558L1083 561L1083 565L1082 566L1082 570L1081 571L1081 581L1083 581L1083 579L1082 578L1083 576L1083 567L1084 566L1084 563L1085 562L1087 554L1090 548L1092 546L1093 543L1098 537ZM944 534L944 535L946 535L947 537L949 536L949 535ZM1077 533L1076 533L1073 537L1073 539L1069 546L1069 549L1067 551L1066 557L1067 557L1067 555L1068 554L1070 546L1072 544L1072 542ZM1214 527L1215 530L1217 531L1216 528ZM1101 521L1100 521L1097 524L1096 524L1092 528L1091 531L1089 532L1085 536L1075 556L1075 559L1074 560L1074 565L1076 564L1076 560L1077 559L1078 553L1082 545L1084 543L1086 538L1088 536L1088 535L1090 534L1090 532L1092 531L1095 527L1096 527L1100 523L1101 523ZM1101 531L1104 531L1118 521L1130 517L1153 517L1172 524L1186 535L1199 556L1202 567L1203 587L1204 571L1199 552L1189 536L1175 524L1157 516L1142 514L1120 519ZM1097 511L1094 512L1093 514L1089 516L1089 518L1088 519L1086 519L1086 521L1084 522L1081 526L1080 526L1080 528L1078 529L1078 531L1079 531L1079 529L1081 528L1081 526L1083 525L1085 523L1085 522L1088 520L1089 518L1093 516L1093 515L1095 514L1097 512ZM1113 502L1109 503L1107 505L1105 505L1105 506L1107 506L1113 503ZM1166 500L1166 501L1170 502L1170 501ZM1122 499L1120 498L1116 500L1116 502L1121 501ZM1125 499L1127 499L1128 498L1134 498L1134 497L1129 497L1128 498L1125 498ZM1141 495L1141 498L1143 499L1145 497L1145 496L1144 495ZM1356 486L1355 487L1355 491L1358 491L1359 490L1359 488L1358 486ZM1119 481L1118 483L1119 484L1121 484L1121 481ZM1028 481L1028 482L1032 482L1032 481ZM852 481L852 482L860 482L860 481ZM945 465L945 466L948 467L948 466ZM1352 448L1352 449L1353 449L1357 453L1358 453L1358 452L1360 450L1360 448L1358 446L1355 446L1353 448ZM927 430L936 430L937 431L937 435L935 436L935 438L937 439L937 451L936 452L936 455L935 456L935 465L934 466L932 465L932 462L931 461L930 456L928 456L927 455L928 453L931 453L931 452L928 452L926 450L927 448L927 441L929 440L929 439L928 439L926 437L926 431ZM932 426L933 425L935 425L936 427L935 428L933 428ZM943 416L944 422L945 422L944 416ZM1262 411L1258 414L1258 418L1259 420L1261 421L1261 428L1258 431L1258 433L1261 437L1264 437L1267 433L1266 429L1264 428L1264 421L1267 418L1267 414L1265 412ZM1254 407L1253 407L1251 409L1250 413L1249 414L1249 419L1252 424L1254 424L1254 421L1253 420L1253 413L1255 410L1255 408ZM1271 406L1270 407L1270 410L1272 412L1272 415L1273 416L1272 420L1271 421L1271 424L1273 424L1275 422L1275 420L1276 419L1276 412L1273 406ZM1276 401L1275 402L1275 404L1280 411L1280 421L1278 425L1276 427L1276 430L1279 430L1279 429L1282 425L1282 423L1284 419L1284 412L1283 411L1283 409L1280 403L1278 401ZM1247 401L1242 409L1241 419L1242 420L1243 425L1245 427L1245 428L1247 430L1249 430L1249 428L1245 420L1245 412L1246 411L1247 407L1250 404L1250 402L1249 401ZM1119 450L1121 449L1121 410L1125 408L1130 402L1187 400L1131 400L1125 390L1115 390L1112 397L1112 403L1114 407L1119 410ZM1256 386L1269 386L1279 390L1289 400L1293 409L1293 425L1288 436L1280 444L1268 449L1256 449L1246 445L1239 439L1232 425L1232 410L1235 402L1244 392L1248 389ZM971 386L972 388L972 391L973 391L973 388L972 386ZM1200 400L1220 401L1223 403L1224 416L1222 418L1226 420L1228 429L1231 430L1237 440L1244 446L1243 448L1232 449L1244 449L1250 453L1257 451L1261 453L1262 457L1267 451L1286 449L1282 446L1298 429L1300 420L1302 419L1301 414L1295 409L1298 403L1290 391L1284 391L1279 382L1270 377L1250 378L1245 385L1240 385L1231 391L1232 396L1235 397L1234 399ZM972 362L972 366L973 366L973 362ZM1282 358L1282 359L1284 359L1285 360L1289 360L1290 361L1296 361L1297 362L1299 362L1299 360L1291 360L1290 359L1285 359L1284 358ZM1126 354L1126 355L1130 357L1133 357L1133 356L1130 356ZM1367 353L1367 354L1370 355L1370 354ZM721 353L721 354L733 354L733 353ZM1273 352L1274 356L1279 358L1279 357L1277 356L1274 352ZM1359 351L1359 352L1364 353L1364 352L1361 352ZM755 351L746 351L745 352L737 352L737 353L744 353L745 352L755 352ZM1050 350L1050 351L1054 353L1054 351ZM771 348L766 349L766 350L769 350L771 349ZM782 346L780 347L776 347L774 348L774 349L776 349L777 348L781 348ZM1212 345L1212 346L1215 346L1219 348L1224 348L1224 347L1221 347L1220 346L1217 346L1216 345ZM1134 345L1134 346L1136 347L1141 347L1141 346L1139 346L1138 345ZM1159 344L1159 345L1163 345L1164 346L1174 347L1176 348L1177 350L1178 350L1178 349L1177 349L1176 347L1174 347L1173 346L1169 346L1168 345L1163 345L1162 344ZM987 344L989 343L991 345L991 346L990 347L988 347L987 346ZM1075 342L1076 341L1078 341L1079 343L1078 344L1076 344ZM1066 342L1067 341L1071 341L1073 342L1074 344L1073 345L1071 344L1067 344ZM870 342L871 341L873 341L874 342L874 345L872 346L870 344ZM1389 339L1389 340L1392 340L1393 341L1393 343L1396 343L1399 345L1401 345L1401 344L1399 344L1397 342L1397 341L1399 340L1399 339ZM1403 338L1403 339L1409 339L1411 340L1411 338ZM784 330L784 331L787 331L791 333L795 333L796 334L801 334L802 335L810 336L810 335L807 335L806 334L803 334L802 333L795 333L794 332L791 332L787 330ZM776 329L776 330L780 330L780 329ZM1325 327L1325 331L1326 331L1326 327ZM758 331L765 331L767 332L767 331L769 329L771 329L771 328L764 327L764 329L763 330L758 330ZM1374 319L1375 318L1379 318L1381 320L1381 323L1383 323L1385 325L1385 327L1384 328L1380 327L1378 325L1378 323L1374 321ZM1126 315L1128 316L1128 327L1127 328L1125 327L1125 316ZM1171 314L1173 315L1173 327L1172 328L1170 327L1170 315ZM1094 316L1095 315L1104 315L1105 314L1122 314L1123 315L1123 318L1124 320L1122 322L1096 322L1094 320ZM1369 313L1370 312L1376 314L1377 316L1376 317L1372 317L1369 314ZM1166 308L1168 309L1168 312L1167 313L1165 312L1165 309ZM1159 308L1161 307L1162 309L1160 310ZM1364 307L1365 306L1369 306L1371 308L1371 309L1370 310L1366 310L1364 308ZM1359 307L1361 306L1362 308L1360 309ZM1382 305L1382 308L1384 308L1383 305ZM1356 303L1358 302L1359 304L1357 305ZM1360 302L1361 301L1365 301L1367 303L1367 304L1366 305L1362 305L1360 303ZM1357 298L1358 297L1362 297L1363 299L1362 300L1358 300ZM1073 297L1078 297L1079 298L1079 306L1080 308L1084 312L1088 313L1089 314L1092 314L1093 315L1093 321L1092 322L1083 321L1076 316L1076 315L1074 313L1074 312L1076 311L1076 310L1074 306L1074 300L1072 299ZM1148 297L1151 295L1154 295L1156 297L1156 299L1154 301L1151 301L1148 299ZM1352 292L1353 291L1357 291L1359 293L1359 294L1358 295L1355 295L1353 294ZM930 291L934 291L935 292L935 295L933 299L932 299L931 298L931 296L929 295L929 292ZM926 291L922 694L917 706L912 704L914 723L909 725L907 293ZM1282 288L1284 289L1284 292L1283 293L1281 292L1281 289ZM1371 288L1373 287L1374 289L1372 290ZM1349 287L1350 286L1353 286L1354 288L1353 289L1350 289ZM1150 286L1152 286L1153 287L1153 289L1154 290L1154 293L1153 294L1151 294L1150 293L1150 291L1149 290L1149 287ZM912 285L951 285L953 289L943 291L955 293L953 723L940 684L936 291L912 290ZM1363 283L1364 283L1365 285L1369 288L1371 292L1371 294L1370 295L1370 297L1371 298L1371 302L1370 303L1369 303L1366 300L1365 297L1362 294L1362 284ZM1355 281L1359 282L1360 283L1360 286L1361 287L1361 289L1360 290L1359 290L1355 286L1354 284L1354 282ZM1345 282L1346 281L1349 281L1350 283L1349 284L1346 284ZM1149 280L1150 279L1152 279L1154 283L1152 285L1150 285L1149 284ZM911 281L912 280L917 280L918 279L951 279L952 280L956 280L957 281L957 283L956 284L912 284L911 283ZM1354 278L1356 276L1357 276L1361 280L1361 281L1359 282L1357 280L1355 280ZM1350 277L1352 276L1353 277L1353 279L1351 280L1350 279ZM1341 277L1342 276L1345 276L1346 278L1344 280L1343 280L1341 278ZM1333 275L1335 274L1336 276L1334 277ZM1338 273L1340 272L1341 274L1339 275ZM1345 272L1346 271L1348 271L1349 273L1348 274L1346 274ZM1304 272L1305 271L1316 271L1317 273L1316 274L1305 274ZM1286 272L1287 271L1290 271L1291 273L1290 274L1287 274ZM1268 272L1269 271L1279 271L1280 273L1279 274L1269 274ZM1150 267L1152 266L1153 268L1151 269ZM1300 262L1301 261L1308 261L1309 262L1309 269L1308 270L1304 270L1303 269L1301 269L1300 268ZM1238 262L1239 261L1246 261L1247 262L1247 269L1246 270L1239 270L1238 269ZM1327 260L1329 260L1330 261L1330 268L1328 270L1327 270L1325 268L1325 262ZM1324 261L1324 269L1323 270L1320 270L1319 269L1312 269L1311 268L1311 265L1313 261L1321 261L1322 260ZM1273 261L1274 260L1289 260L1290 261L1296 260L1298 262L1298 268L1297 269L1293 270L1292 269L1292 266L1291 266L1291 268L1289 270L1276 270L1273 268ZM1268 261L1268 268L1267 269L1262 269L1261 270L1259 270L1258 269L1253 269L1252 268L1252 262L1253 261L1263 261L1264 260L1267 260ZM1075 260L1077 260L1078 261L1078 265L1079 266L1079 270L1078 271L1078 295L1077 296L1076 296L1074 294L1074 261ZM919 262L920 261L923 261L923 259L924 258L940 258L941 259L941 263L940 264L936 264L936 265L943 265L944 266L944 269L947 275L947 277L946 278L941 278L940 276L938 276L937 278L921 278L920 276L922 275L922 273L920 273L919 272L919 267L923 265L928 265L928 264L920 264ZM1269 255L1271 254L1272 255L1272 257L1270 258L1269 257ZM1238 253L1240 252L1241 253L1245 254L1247 256L1247 258L1246 259L1239 259L1238 258ZM1327 251L1329 251L1330 252L1330 258L1329 259L1327 259L1326 258L1326 252ZM1311 252L1312 251L1323 251L1324 252L1324 258L1323 259L1313 259L1311 257ZM1300 253L1303 251L1308 251L1309 252L1309 258L1308 259L1301 259L1300 258ZM1273 252L1274 251L1276 251L1277 252L1281 252L1282 251L1289 251L1290 252L1290 256L1291 256L1292 255L1292 252L1293 251L1296 251L1298 255L1298 258L1297 259L1282 259L1281 258L1279 259L1274 259L1273 258ZM1249 252L1250 251L1267 251L1268 252L1268 258L1267 259L1254 259L1252 256L1250 256L1249 255ZM1018 251L1019 250L1021 250L1022 251L1022 253L1021 254L1019 254L1018 253ZM1274 242L1276 243L1276 248L1275 249L1273 248L1273 243ZM1005 242L1006 244L1005 246L1003 247L1002 246L1002 244L1004 242ZM1064 241L1068 241L1070 242L1076 248L1077 250L1077 254L1078 255L1078 257L1077 258L1073 258L1071 256L1071 254L1069 250L1068 250L1066 248L1064 248L1062 246L1062 243ZM1041 242L1043 240L1054 240L1055 241L1058 241L1059 242L1059 246L1057 248L1043 248L1041 246ZM1008 241L1009 240L1015 240L1016 241L1023 241L1024 240L1029 240L1030 241L1030 247L1028 249L1010 248L1008 246ZM960 243L962 241L962 239L963 238L968 238L969 240L971 240L972 241L990 241L991 240L995 240L996 241L996 247L995 248L980 248L979 247L961 248L960 247ZM1036 237L1038 238L1038 242L1039 243L1039 251L1037 254L1035 254L1034 253L1034 251L1032 251L1031 250L1031 243L1033 242L1034 244L1035 244L1035 238ZM999 236L1001 237L1001 253L1000 254L998 253L998 237ZM934 237L929 237L929 240L928 242L931 243L931 239L932 238L935 239ZM1249 237L1255 234L1269 234L1271 236L1271 239L1270 240L1270 242L1271 243L1271 248L1270 249L1250 249L1249 248L1249 241L1250 240L1254 240L1254 239L1250 239ZM912 237L914 235L917 234L918 232L931 232L932 231L941 231L942 232L945 232L946 233L945 237L948 236L951 236L952 237L950 241L952 242L952 245L953 245L954 237L955 236L957 237L959 250L958 253L955 254L953 252L953 248L952 248L951 250L947 253L947 255L944 257L922 257L920 255L920 249L919 248L915 248L912 246L912 243L913 242ZM1258 231L1259 230L1262 230L1263 232L1262 233L1259 233ZM1286 229L1289 229L1290 230L1293 230L1294 231L1293 234L1295 234L1297 236L1297 238L1298 239L1298 248L1297 249L1279 249L1278 248L1278 239L1280 238L1280 235L1281 234L1283 234L1283 231ZM921 220L923 218L944 218L945 219L945 220L943 222L943 229L942 230L923 230L922 229ZM943 213L944 212L946 212L947 214L946 215L944 215ZM921 213L922 212L940 212L941 213L941 216L940 217L928 217L927 216L922 216L921 215ZM998 197L998 224L996 228L993 230L992 233L988 233L987 234L964 234L963 233L963 230L960 228L959 225L953 225L950 229L948 228L948 220L950 218L949 207L951 205L954 206L957 205L958 201L960 200L963 196L969 196L971 198L975 198L977 194L984 194L985 195L996 195ZM1352 194L1352 197L1355 197L1355 196L1354 196L1353 194ZM959 193L960 192L963 192L964 194L963 195L960 195ZM943 191L944 190L951 189L952 190L952 195L953 196L954 196L954 192L956 191L957 192L957 201L956 202L954 202L953 200L952 200L952 202L951 203L950 203L949 201L947 201L943 197ZM916 154L921 154L922 157L925 157L927 154L935 154L937 157L941 157L943 154L946 154L948 156L947 158L942 160L943 169L941 176L939 178L936 178L936 179L943 179L946 182L941 193L942 198L946 203L944 204L943 207L941 207L940 211L924 211L920 209L920 195L921 194L920 181L923 179L927 179L927 178L920 178L919 177L919 175L921 173L921 161L915 157ZM1021 159L1030 152L1250 153L1258 160L1258 224L1247 233L1247 248L1236 250L1236 297L1241 303L1243 276L1279 276L1280 307L1181 308L1178 300L1163 305L1154 271L1175 262L1152 256L1127 261L1148 271L1140 305L1125 300L1121 308L1087 307L1078 239L1044 234L1039 225L1028 233L1021 230ZM1273 150L1273 154L1274 154L1274 150ZM930 110L935 111L935 114L933 116L935 117L934 125L935 126L935 135L937 138L936 141L947 142L949 145L946 147L941 147L941 148L946 148L949 151L948 153L916 153L914 151L916 148L931 148L931 147L915 146L914 145L915 143L932 141L932 138L929 140L927 139L929 126L928 123L929 114L928 112ZM927 103L929 101L932 101L935 103L935 105L937 105L938 107L935 109L928 109L927 108ZM920 99L922 100L922 103L921 104L919 103L919 100ZM905 101L907 99L909 99L910 100L914 100L915 102L914 103L906 103ZM890 100L891 99L903 99L904 101L903 102L892 103L890 101ZM927 94L928 93L934 93L935 94L935 99L934 100L929 100L928 99ZM927 88L930 86L932 86L935 88L935 90L934 91L928 91L927 90ZM929 81L930 80L932 80L934 82L934 84L933 85L930 85L929 84ZM931 70L933 71L933 78L932 79L930 78L930 71ZM1263 136L1019 146L1014 234L930 68L888 98L915 273L786 346L876 352L878 799L904 297L906 1012L909 760L922 971L955 774L957 1006L958 297L985 719L994 345L1375 340L987 338L949 256L1064 249L1124 330L1283 323L1174 314L1303 314L1293 275L1388 328L1366 204L1311 248L1353 189L1263 228Z" fill="#c08d35" opacity="0.7" filter="url(#glow)"/><path d="M1120 973L1120 975L1123 976L1123 975L1121 973ZM956 966L956 970L957 970L957 966ZM931 960L930 960L930 962L929 963L927 963L927 965L926 966L924 966L924 967L931 967L931 965L932 964ZM1095 948L1094 948L1093 950L1091 950L1091 951L1095 951ZM1067 946L1067 948L1070 948L1070 947ZM922 946L921 946L920 950L921 950ZM931 942L933 938L935 938L936 939L936 940L934 941L933 943ZM925 931L926 930L928 930L929 932L928 933L926 933ZM922 928L924 927L925 929L923 930ZM1027 921L1027 923L1029 923L1030 922L1030 921ZM917 901L918 900L922 900L923 901L923 905L922 906L918 905L917 904ZM917 893L918 892L920 892L921 893L926 893L927 894L935 894L936 893L943 893L945 892L946 893L946 896L944 898L941 899L941 900L943 901L943 905L941 907L937 907L934 904L934 902L936 901L936 900L935 900L933 898L933 897L919 898L917 896ZM1214 891L1206 895L1203 895L1202 896L1199 896L1198 897L1193 897L1192 896L1188 896L1188 897L1193 897L1194 898L1202 897L1203 896L1209 895L1213 892L1214 892ZM1183 895L1183 894L1179 892L1177 892L1176 891L1172 892L1171 893L1166 893L1166 894L1171 894L1172 893L1179 893ZM1010 890L1001 891L1001 892L1004 892L1005 891L1010 891ZM1089 890L1089 891L1092 891L1093 892L1109 893L1109 892L1100 891L1098 889L1096 890ZM1013 889L1013 890L1017 890L1017 889ZM985 887L983 893L982 935L984 941L984 971L986 972L988 970L986 968L986 957L988 956L986 954L986 942L989 941L991 943L988 938L990 935L999 935L991 933L989 931L989 925L1009 923L994 923L988 921L987 917L989 913L986 912L986 907L988 905L987 901L991 899L989 895L995 892L993 890L989 892ZM921 886L923 887L923 890L922 891L920 890L920 887ZM785 883L785 884L790 884L790 883ZM1224 882L1223 882L1217 888L1217 889L1223 886ZM877 882L877 890L875 892L867 892L867 893L872 893L876 895L874 898L877 900L875 903L877 909L875 910L876 918L874 919L873 922L867 922L867 923L871 923L875 926L875 932L873 934L874 941L872 942L872 944L875 943L877 948L877 967L873 970L875 970L878 973L880 932L879 931L879 891L878 882ZM1165 880L1166 883L1168 884L1166 880ZM921 868L923 869L923 877L922 878L920 877L920 869ZM1193 869L1193 870L1195 872L1197 871L1197 869L1196 868ZM1177 866L1178 865L1180 866L1184 866L1186 868L1186 873L1185 874L1180 874L1178 875L1177 874ZM935 866L935 871L936 871L936 866ZM1206 866L1211 866L1212 864L1214 865L1213 867L1213 870L1214 871L1214 876L1213 877L1212 877L1210 874L1205 874L1204 873L1205 871L1205 867ZM1192 862L1199 862L1203 866L1203 873L1201 876L1197 878L1193 878L1191 877L1187 872L1187 868L1188 866ZM877 853L877 858L878 858L878 853ZM1195 850L1196 850L1197 852L1199 852L1200 853L1200 855L1198 856L1198 859L1197 860L1193 860L1192 858L1194 857L1194 856L1191 856L1190 855L1190 854L1192 852L1194 852ZM935 850L935 857L936 858L935 863L936 863L937 858L936 857L936 850ZM920 844L922 843L923 845L921 846ZM1226 841L1228 845L1229 850L1230 851L1230 868L1229 869L1229 871L1227 875L1227 877L1228 877L1229 873L1231 871L1231 866L1232 865L1232 861L1233 859L1232 858L1232 855L1231 854L1230 847L1227 841ZM1193 839L1194 838L1196 838L1197 840L1196 841L1194 841ZM935 839L935 847L936 847L936 844L937 842L936 841L936 839ZM1184 837L1183 838L1184 841L1193 843L1193 849L1190 850L1189 852L1189 856L1191 861L1187 865L1182 865L1178 861L1176 862L1176 879L1179 880L1182 876L1187 875L1193 879L1199 879L1205 875L1208 875L1210 877L1210 879L1215 879L1215 862L1213 861L1210 862L1209 865L1204 865L1200 861L1202 854L1198 850L1198 843L1201 841L1206 841L1207 837ZM935 830L935 834L936 834L936 830ZM920 827L922 826L923 828L921 829ZM1207 824L1200 822L1184 823L1173 829L1166 836L1160 847L1159 851L1159 868L1163 878L1164 877L1161 869L1160 856L1163 845L1167 838L1175 830L1182 826L1192 823L1199 823L1206 825ZM938 812L943 812L944 813L944 818L942 821L942 827L943 828L943 834L942 835L942 841L943 842L942 845L943 849L943 869L942 870L942 875L943 876L944 890L942 892L937 892L936 890L933 891L931 888L931 881L933 872L931 870L932 867L932 863L931 862L932 860L931 819L932 818L932 814L934 813L935 816L936 816L936 814ZM917 806L918 805L924 805L925 806L925 808L923 810L919 810L917 808ZM919 792L921 792L924 794L924 798L923 799L924 802L922 804L920 804L917 802L917 801L919 800L919 799L917 799L916 798L916 795ZM917 776L921 777L923 779L923 787L922 788L918 788L915 785L915 778ZM925 770L927 769L928 771L926 772ZM917 763L921 763L923 766L923 771L921 773L917 772L916 771L916 764ZM877 764L877 774L878 774L878 764ZM945 761L947 766L947 770L944 773L941 774L940 776L942 776L943 778L945 777L948 778L947 789L942 791L942 793L945 793L947 795L947 802L941 804L941 805L944 805L946 808L939 811L931 810L930 809L930 806L932 805L932 804L930 803L931 800L930 794L932 793L930 785L932 784L932 783L930 781L930 779L932 777L936 777L935 774L930 773L929 770L931 767L934 767L936 762L938 761L941 761L942 762ZM1050 757L1049 758L1049 762L1051 764L1055 763L1056 759L1054 757ZM877 754L877 758L878 758L878 754ZM1300 748L1302 747L1303 748L1303 750L1301 751L1300 750ZM1313 735L1315 736L1315 750L1314 751L1312 750L1312 736ZM877 732L877 738L878 738L878 732ZM986 729L985 729L985 741L984 742L984 746L985 746L985 742L986 741ZM1292 728L1291 728L1288 731L1286 731L1286 732L1290 731L1292 729ZM1313 725L1315 726L1315 732L1314 733L1312 732L1312 726ZM877 723L877 727L878 727L878 723ZM1297 723L1297 724L1302 724L1304 725L1304 724L1300 723L1299 722ZM934 723L936 721L945 721L946 722L946 724L944 726L942 726L941 727L939 726L936 726L934 724ZM1208 718L1207 719L1207 722L1208 723L1211 723L1212 722L1212 719L1211 718ZM1111 718L1110 721L1113 724L1116 724L1118 722L1118 720L1116 717L1113 717ZM917 717L918 716L920 716L921 718L920 719L918 719ZM1281 714L1280 753L1320 753L1317 751L1316 724L1310 724L1309 752L1306 752L1304 750L1304 732L1300 731L1298 732L1298 751L1292 751L1292 739L1287 739L1287 751L1283 752ZM1310 719L1311 719L1313 717L1317 717L1317 713L1312 713L1312 716L1310 718ZM920 703L921 702L925 702L927 704L927 705L926 706L922 706L920 704ZM877 696L877 710L878 710L878 696ZM1300 694L1284 698L1272 707L1265 718L1262 736L1270 755L1264 739L1265 725L1271 712L1282 702L1294 697L1306 697L1323 705L1331 714L1336 726L1336 741L1330 755L1320 765L1304 771L1285 768L1271 757L1281 767L1302 773L1315 770L1328 761L1336 748L1339 732L1334 715L1324 703L1314 697ZM925 690L927 691L927 695L926 696L924 695L924 691ZM937 687L939 688L939 696L937 697L937 698L939 700L943 701L944 702L944 704L942 706L940 706L940 707L941 708L943 708L944 710L946 711L946 713L945 714L943 714L943 716L945 716L946 717L944 720L937 720L936 719L934 719L933 717L935 716L935 715L931 715L929 713L923 712L922 711L919 711L918 710L919 708L929 708L930 707L934 707L934 706L931 706L930 705L930 704L933 701L932 697L930 695L930 691L932 689L936 690L936 688ZM925 683L927 684L927 688L926 689L924 688L924 684ZM877 677L877 693L878 693L878 677ZM1244 666L1239 668L1238 670L1238 672L1241 675L1245 675L1248 672L1248 671L1246 669L1246 668L1244 667ZM1144 656L1142 656L1141 658L1143 659L1144 658ZM1134 656L1135 658L1138 658L1138 657ZM985 653L985 684L986 684L986 653ZM934 642L936 642L937 643L937 647L936 649L937 650L937 653L938 654L938 662L937 663L938 665L938 685L936 686L935 688L934 688L931 684L931 683L933 682L932 674L934 670L933 668L933 651L932 650L932 646ZM1093 640L1093 641L1094 641L1095 643L1096 643L1096 642L1095 642L1094 640ZM935 632L937 633L937 640L936 641L934 640L934 633ZM935 623L937 622L939 624L939 626L938 627L936 627L935 626ZM1133 613L1134 612L1154 612L1155 614L1154 615L1134 615ZM935 612L937 612L938 613L938 616L937 617L938 620L937 621L936 621L933 617L933 615ZM1135 603L1137 601L1149 601L1151 604L1151 608L1152 610L1151 611L1135 611L1134 610ZM1140 595L1141 597L1145 596L1144 594L1141 594ZM1101 593L1103 591L1182 591L1184 593L1184 596L1181 600L1105 600L1102 598ZM1181 579L1183 580L1183 584L1182 585L1180 584L1180 580ZM1063 578L1063 582L1064 582L1064 578ZM1328 577L1326 577L1323 580L1321 580L1319 582L1319 585L1320 586L1323 586L1325 584L1325 581L1328 578ZM1118 570L1115 571L1115 572L1117 572ZM934 565L936 566L936 609L935 610L933 609L933 566ZM1064 564L1064 568L1065 568L1065 564ZM1132 561L1136 570L1139 573L1139 574L1140 574L1146 568L1146 567L1145 567L1141 570L1138 570L1136 568L1136 566L1134 562ZM1129 561L1127 562L1125 567L1127 566ZM1150 560L1149 560L1147 565L1148 565ZM1309 561L1302 568L1298 576L1298 588L1301 595L1305 599L1309 596L1308 595L1305 597L1303 595L1300 588L1300 584L1303 582L1299 581L1305 567L1307 565L1310 567L1309 564L1316 560L1328 560L1333 562L1341 570L1344 577L1344 581L1340 582L1344 584L1343 591L1339 597L1336 596L1339 599L1342 596L1346 586L1346 578L1342 568L1336 562L1327 558L1316 558ZM1103 557L1105 558L1105 588L1104 589L1102 588L1102 558ZM934 555L936 555L937 556L936 562L935 563L933 562L933 556ZM927 555L929 556L929 560L928 561L926 560L926 556ZM1153 555L1152 555L1151 558L1153 558ZM1079 550L1078 550L1077 552L1074 564L1075 564L1076 558L1077 557L1077 554L1079 552ZM1315 546L1330 546L1338 549L1347 556L1353 564L1356 571L1357 586L1356 592L1352 601L1344 610L1330 617L1314 617L1304 613L1294 604L1289 596L1287 589L1287 575L1291 564L1299 554ZM1106 546L1108 544L1113 545L1177 544L1179 546L1180 563L1179 588L1177 590L1108 590L1106 588ZM925 544L926 544L928 546L928 550L927 551L925 551L924 550L924 545ZM1314 544L1299 551L1288 564L1284 579L1285 590L1291 603L1303 614L1315 619L1333 618L1343 613L1351 605L1357 595L1360 582L1357 567L1352 559L1341 549L1328 544ZM1192 542L1193 545L1195 547L1195 549L1197 551L1197 552L1198 552L1195 545L1193 543L1193 542ZM1178 542L1179 541L1182 541L1183 542L1183 545L1181 546L1180 544L1178 543ZM1172 541L1173 540L1176 540L1177 542L1176 543L1173 543ZM1101 541L1100 597L1104 601L1132 601L1133 608L1131 611L1124 612L1124 617L1161 617L1162 612L1153 609L1153 601L1182 601L1185 598L1185 542L1183 540L1114 539L1107 540L1104 547L1102 546L1104 540ZM925 537L927 538L927 542L926 543L924 542L924 538ZM1087 536L1086 536L1083 540L1080 547L1081 547L1082 544L1084 542ZM935 535L937 535L938 536L938 540L939 541L939 551L937 552L936 554L934 553L934 551L933 550L934 548L934 545L935 544L933 537ZM933 532L934 531L936 531L937 533L936 534L934 534ZM1157 517L1157 518L1159 518L1160 519L1164 520L1164 519L1162 519L1159 517ZM1121 499L1119 499L1118 501L1120 501ZM1142 495L1141 497L1142 498L1144 498L1144 495ZM1356 487L1355 488L1355 490L1356 491L1358 491L1359 489L1358 487ZM1355 447L1355 450L1356 451L1358 451L1359 450L1359 448L1358 447ZM926 426L927 425L929 425L930 427L929 428L927 428ZM933 424L935 424L937 426L936 429L938 432L938 435L937 436L937 440L938 441L938 451L937 452L937 456L936 457L936 465L934 467L933 467L931 465L931 464L930 464L929 466L927 465L926 463L926 456L925 455L925 439L926 438L925 436L925 431L927 429L931 429L931 426ZM931 417L933 416L934 417L934 419L932 420L931 419ZM1260 412L1258 415L1258 418L1262 422L1262 426L1259 430L1259 435L1260 436L1265 436L1266 435L1266 430L1264 428L1264 424L1263 422L1267 418L1267 415L1265 412ZM1252 408L1250 412L1250 420L1252 424L1254 424L1254 422L1252 418L1252 415L1253 414L1253 412L1255 408ZM1271 407L1270 409L1272 411L1272 413L1273 414L1273 419L1271 422L1271 424L1273 424L1276 418L1276 414L1275 413L1275 411L1273 407ZM1276 401L1276 404L1280 410L1280 414L1281 415L1280 422L1278 426L1276 428L1276 429L1278 430L1280 428L1282 424L1282 422L1283 421L1283 410L1279 402L1278 401ZM1249 401L1248 401L1245 404L1243 408L1243 410L1242 411L1242 421L1243 422L1244 426L1247 430L1248 430L1249 428L1247 426L1245 422L1245 418L1244 417L1244 415L1245 414L1246 408L1250 403ZM1122 394L1118 394L1115 397L1115 404L1119 408L1119 412L1120 412L1120 410L1122 406L1123 406L1128 401L1131 401L1131 400L1128 400L1126 398L1126 397ZM1259 385L1267 385L1280 390L1290 401L1294 413L1293 426L1286 439L1279 445L1266 450L1254 449L1244 444L1237 437L1233 429L1231 421L1231 413L1235 401L1243 392L1251 387ZM1259 383L1249 386L1239 392L1233 401L1230 400L1233 403L1230 409L1229 421L1234 435L1243 445L1247 448L1263 452L1273 450L1282 445L1293 432L1295 422L1299 417L1296 416L1294 406L1291 400L1282 390L1270 384ZM1113 355L1113 356L1119 356L1119 355ZM814 344L819 343L819 342L816 342L814 343ZM1162 340L1162 341L1167 341L1167 340ZM1219 339L1219 341L1221 340L1231 340L1232 341L1234 340L1237 340L1238 341L1240 341L1240 340L1238 340L1237 339ZM1193 341L1195 341L1196 340L1215 340L1215 339L1195 339L1193 340ZM1170 339L1170 340L1190 340L1190 339ZM1129 339L1129 340L1137 340L1137 339ZM1155 339L1151 338L1150 339L1147 339L1146 340L1142 340L1142 341L1146 341L1150 339L1155 340ZM1169 324L1169 329L1170 329L1170 324ZM1134 309L1136 308L1137 310L1135 311ZM1280 308L1280 309L1282 309L1283 310L1295 310L1295 309L1286 309L1285 308L1282 309ZM1157 298L1159 297L1160 299L1158 300ZM976 295L985 298L986 649L988 480L998 481L987 478L986 342L1126 339L988 339L986 295ZM900 293L902 291L904 291L905 292L905 294L904 295L901 295ZM914 276L915 275L917 275L918 277L917 278L915 278ZM1346 275L1346 276L1348 278L1348 280L1350 281L1349 277L1347 275ZM1286 274L1280 274L1280 293L1281 293L1281 276L1282 275L1286 275ZM1153 274L1157 309L1161 306L1164 313L1164 309L1167 307L1169 309L1169 318L1171 312L1174 314L1175 308L1177 309L1177 316L1179 316L1180 311L1189 311L1193 314L1205 314L1207 311L1210 315L1211 313L1220 312L1234 314L1236 311L1272 310L1261 308L1180 308L1177 300L1170 300L1164 306L1160 303L1161 295L1157 291L1159 280ZM1340 270L1340 271L1345 272L1345 271L1342 271ZM1352 268L1352 270L1351 271L1351 275L1355 276L1355 275L1353 275L1352 274L1352 272L1353 271L1356 272L1356 271L1355 271L1353 269L1353 268ZM1150 264L1152 264L1153 265L1153 269L1152 270L1151 270L1149 268L1149 265ZM1143 264L1144 263L1147 263L1148 265L1147 266L1144 266ZM1019 264L1021 263L1022 265L1020 266ZM1153 265L1153 264L1155 263L1155 261L1156 260L1163 260L1164 261L1163 263L1159 263L1159 264L1156 266L1154 266ZM947 255L947 256L945 257L945 259L947 260L947 263L946 264L943 264L943 265L945 265L947 267L947 279L952 279L952 276L948 274L948 263L949 262L949 257L948 255ZM1246 251L1247 252L1247 259L1246 260L1243 260L1243 261L1246 261L1247 262L1247 269L1246 270L1239 270L1237 268L1237 262L1239 261L1239 260L1237 258L1237 253L1238 252L1243 252L1244 251ZM952 255L953 256L958 256L961 252L961 250L959 250L959 253L957 255L954 255L953 254L953 250L952 250ZM1309 249L1309 269L1308 271L1333 271L1335 273L1336 273L1336 271L1332 269L1330 269L1329 270L1312 270L1311 269L1311 261L1313 260L1313 259L1312 259L1310 257L1310 249ZM1300 249L1298 249L1297 250L1298 252L1298 261L1299 261L1299 252L1300 251L1303 251L1303 250L1301 250ZM1030 249L1030 252L1032 253L1032 255L1035 255L1034 253L1032 253L1031 252L1031 249ZM1024 249L1022 249L1023 253L1022 254L1022 257L1021 258L1019 258L1018 257L1018 254L1016 253L1016 266L1019 268L1021 268L1024 266L1024 264L1023 263L1023 261L1024 260ZM1009 249L1006 249L1006 251L1004 254L1001 254L1000 255L998 255L998 256L1005 256L1006 254L1008 252L1009 252ZM1042 248L1040 248L1038 255L1039 255L1039 254L1041 252ZM967 248L967 249L971 249L971 248ZM1281 250L1279 250L1278 249L1274 250L1273 249L1273 247L1272 247L1272 248L1270 250L1264 250L1264 251L1267 251L1268 252L1268 256L1269 256L1269 252L1270 251L1271 251L1272 252L1272 254L1273 254L1273 252L1274 251L1281 251ZM1309 242L1309 246L1310 246L1310 242ZM1267 230L1268 234L1270 234L1272 236L1272 242L1274 241L1277 242L1278 241L1278 235L1279 234L1281 234L1281 232L1279 232L1277 234L1276 236L1276 239L1274 240L1273 239L1273 235L1272 233L1271 233L1268 230ZM916 213L918 212L919 214L917 215ZM941 211L948 213L945 231L952 242L955 233L958 242L995 237L996 253L999 232L1006 246L1010 236L1034 242L1036 231L1039 242L1075 241L1082 257L1066 250L1068 299L1077 319L1072 259L1082 260L1083 306L1093 315L1122 310L1126 330L1125 308L1129 316L1132 306L1132 317L1142 305L1146 310L1150 272L1174 264L1152 256L1129 260L1148 271L1142 303L1088 308L1083 248L1073 236L1043 234L1040 226L1024 234L1021 223L1016 234L1008 234L999 220L992 234L961 234L958 225L948 229L950 204ZM971 196L971 197L976 197L976 196ZM1316 193L1310 196L1309 198L1309 238L1310 238L1310 199L1312 198L1313 196L1315 194L1316 194ZM1323 189L1320 190L1319 192L1323 190ZM937 154L937 156L938 157L941 156L941 154ZM1019 148L1017 150L1017 154L1020 157L1020 158L1021 158L1021 156L1023 155L1023 154L1025 152L1028 152L1028 151L1024 151L1023 149ZM1261 145L1250 145L1250 151L1243 151L1252 153L1259 160L1259 224L1247 234L1247 249L1236 251L1234 274L1240 277L1237 281L1240 285L1243 275L1266 275L1242 274L1242 271L1304 271L1299 267L1297 270L1271 270L1269 261L1273 259L1268 259L1267 270L1250 269L1249 262L1256 259L1249 258L1249 252L1252 251L1249 249L1249 236L1256 230L1263 230L1260 160L1266 151ZM1252 138L1250 138L1246 141L1245 143L1245 147L1246 147L1246 146L1252 139ZM950 138L948 142L951 145L947 147L950 152L947 153L948 158L946 160L946 174L942 177L947 181L945 186L951 188L952 190L956 188L957 196L959 192L976 191L981 194L995 192L998 195L999 209L998 192L979 192L974 188L964 191L958 187L957 182L953 182L951 184L949 183L949 158L955 154L955 142ZM893 103L893 104L901 104L901 103ZM920 98L922 99L922 104L921 105L919 104L919 99ZM891 98L889 98L888 99L888 102L889 103L890 103L889 100L891 99ZM899 98L899 99L902 99L903 98L905 98L906 99L911 99L911 98L909 98L907 96L904 96L901 98ZM931 68L915 273L875 339L832 341L876 341L878 673L878 298L905 297L905 935L910 748L932 957L952 748L957 952L964 279L955 729L927 290L909 732Z" fill="#d9a94a" opacity="1.0" filter="url(#glow)"/><path d="M984 955L984 970L986 971L987 970L985 966L985 957L986 955ZM946 897L947 904L948 904L948 898ZM985 891L984 892L984 931L983 932L983 934L984 935L984 950L986 951L986 937L989 934L989 933L987 931L987 925L988 923L986 921L986 900L987 899L987 895L988 894L988 892ZM876 892L876 895L877 896L877 921L875 923L877 926L877 928L876 929L875 935L876 936L876 942L877 943L877 968L876 970L878 971L879 970L879 966L878 965L878 953L879 952L878 949L879 946L879 893L878 891ZM1094 890L1094 891L1098 892L1098 891ZM1204 873L1203 873L1203 874L1200 877L1198 878L1194 878L1194 879L1197 879L1198 878L1202 877L1204 875ZM1188 874L1187 873L1185 874L1180 874L1180 876L1178 878L1177 878L1177 879L1179 879L1182 875L1188 875ZM1191 857L1191 862L1192 862L1192 857ZM1159 856L1159 866L1160 867L1160 869L1161 869L1160 867L1160 856ZM1198 841L1193 841L1193 849L1191 851L1190 851L1190 852L1194 850L1194 843L1195 842L1198 843ZM1195 837L1195 838L1202 838L1202 837ZM1184 837L1184 841L1185 841L1185 837ZM1171 832L1170 832L1169 834L1165 838L1161 846L1160 852L1161 852L1161 850L1162 849L1162 847L1163 846L1164 842L1169 836ZM1189 823L1183 824L1177 827L1177 828L1183 825L1189 824ZM948 809L945 810L946 812L946 818L945 819L945 837L944 838L945 840L945 853L946 854L945 856L946 859L945 862L946 892L947 892L947 866L948 865L947 863L947 843L948 842L948 818L947 817L947 811ZM915 795L915 905L918 909L917 915L925 918L924 922L929 926L927 929L931 928L931 932L932 925L936 926L935 922L939 923L937 919L945 916L946 912L944 906L943 912L938 911L931 904L926 906L925 902L932 901L931 898L922 899L924 901L923 907L916 905L918 899L916 893L918 892L919 833L917 812L919 810L916 809ZM924 787L924 790L922 792L928 794L928 798L927 799L924 798L924 804L927 809L923 811L926 814L925 835L927 889L926 893L930 893L931 873L930 871L931 811L929 809L930 791L929 787ZM914 786L914 790L916 792L917 792L917 790L915 788L915 786ZM914 770L914 777L915 777L917 775L921 777L930 777L929 773L922 773L920 774L919 773L917 773L915 771L915 770ZM1050 758L1050 762L1051 763L1054 763L1055 762L1055 759L1053 757ZM916 755L917 754L919 754L921 756L921 757L919 759L917 759L916 758ZM1289 746L1291 747L1291 750L1290 751L1288 750L1288 747ZM1301 739L1303 740L1303 751L1302 752L1300 751L1300 740ZM1292 740L1287 740L1287 751L1286 752L1283 752L1281 751L1281 753L1292 753ZM1316 724L1315 724L1315 751L1314 752L1312 752L1311 751L1309 752L1305 752L1304 751L1304 733L1303 732L1299 732L1299 738L1298 739L1298 751L1297 753L1319 753L1319 752L1317 752L1316 751ZM1311 724L1310 726L1310 730L1311 731L1311 740L1312 740L1312 724ZM916 722L918 720L919 720L920 721L924 721L925 723L923 726L917 726L916 725ZM1208 719L1208 722L1210 723L1211 722L1211 719ZM1113 718L1111 720L1111 721L1113 723L1116 723L1117 722L1117 719L1116 718ZM1313 713L1312 714L1313 717L1316 717L1317 716L1317 714ZM919 699L915 711L916 739L914 743L916 751L914 753L914 763L917 760L925 766L926 763L939 761L934 759L937 755L945 754L947 756L942 760L947 761L947 772L944 776L948 777L948 803L949 770L948 752L946 750L949 742L946 732L948 728L948 709L945 705L943 706L947 710L947 726L940 728L931 726L930 722L933 720L928 718L930 715L924 714L926 717L924 720L916 718L918 708L922 707L919 704ZM1295 695L1283 699L1270 710L1264 722L1262 734L1264 739L1267 718L1281 702L1293 697L1308 697L1321 703L1335 721L1337 730L1336 743L1331 754L1322 764L1311 770L1295 771L1306 772L1318 768L1332 755L1337 744L1338 727L1333 714L1322 702L1310 696ZM940 695L940 697L942 698L942 700L944 700L943 696L942 695ZM1241 668L1240 669L1240 673L1242 674L1245 674L1246 673L1246 670L1244 668ZM937 648L938 650L938 667L939 667L939 648ZM877 631L877 639L878 639L878 631ZM938 617L938 619L939 620L939 630L938 631L938 643L939 643L939 631L940 630L940 620L939 619L939 617ZM1310 616L1310 617L1312 617L1313 618L1317 618L1318 619L1325 619L1325 618L1317 618L1316 617L1312 617ZM1160 612L1161 615L1162 615L1162 613ZM1343 611L1332 617L1328 617L1328 618L1336 617L1338 615L1342 613ZM1348 607L1347 607L1345 609L1345 610L1346 610L1348 608ZM1134 607L1133 607L1133 609L1131 611L1131 612L1134 612L1133 610ZM1151 606L1152 608L1152 612L1154 612L1152 608L1152 606ZM985 603L985 633L986 633L986 603ZM1116 600L1116 601L1133 601L1134 602L1136 601L1149 601L1150 602L1152 601L1174 601L1174 600ZM1101 590L1101 591L1168 591L1168 590ZM1184 590L1181 590L1179 589L1178 590L1171 590L1171 591L1184 591ZM1345 587L1344 587L1344 589L1341 595L1342 595L1345 589ZM1325 580L1321 580L1319 582L1319 584L1321 586L1323 586L1325 583ZM1142 570L1141 570L1139 572L1139 573L1140 573L1142 571ZM1341 569L1344 575L1344 578L1345 578L1345 575L1342 569ZM1355 565L1354 565L1354 566L1355 567L1356 573L1357 574L1357 589L1356 590L1356 593L1355 594L1355 596L1353 600L1354 600L1357 594L1358 588L1359 587L1359 578L1358 577L1357 569ZM1350 559L1352 563L1353 563L1352 560ZM1325 558L1318 558L1317 559L1312 560L1308 563L1307 563L1301 570L1299 574L1299 577L1298 578L1298 586L1299 587L1299 590L1304 598L1306 598L1306 597L1305 597L1303 595L1300 589L1300 587L1299 586L1299 579L1300 578L1300 575L1302 571L1304 569L1304 568L1312 561L1314 560L1317 560L1318 559L1325 559ZM985 557L985 600L986 600L987 598L986 596L986 575L987 574L987 572L986 571L986 557ZM1346 554L1346 555L1348 557L1349 557L1349 556L1347 554ZM923 551L923 554L926 555L925 552ZM1324 544L1312 545L1303 549L1292 559L1287 568L1285 575L1285 587L1287 595L1294 606L1295 605L1292 602L1287 591L1287 585L1286 584L1287 581L1286 579L1287 578L1288 570L1293 560L1301 552L1310 547L1324 545ZM985 542L985 549L986 550L986 554L987 554L987 550L986 549L986 542ZM937 531L937 534L939 537L939 545L940 545L940 537L938 534L938 531ZM926 481L926 486L927 486L927 481ZM932 467L926 471L930 474L930 488L927 489L930 528L926 530L929 532L930 556L926 565L930 568L926 570L924 612L929 612L926 631L923 621L924 633L928 633L924 636L928 639L928 679L924 673L923 689L927 682L928 693L922 697L927 699L927 707L930 707L931 698L930 643L934 626L931 618ZM985 466L985 508L984 509L984 516L985 517L985 522L986 522L986 498L987 496L986 495L986 466ZM877 452L876 597L878 626ZM1260 450L1260 451L1265 451L1265 450ZM985 450L985 458L986 458L986 450ZM1356 447L1355 449L1356 450L1358 450L1358 447ZM1278 446L1274 448L1269 449L1269 450L1271 449L1274 449L1278 447ZM939 431L938 431L938 456L936 460L937 462L938 462L938 457L939 456ZM877 430L877 434L878 434L878 430ZM925 428L925 429L923 431L923 433L924 434L924 436L923 437L923 459L925 462L925 468L926 468L926 460L925 459L925 456L924 455L924 453L925 452L924 450L924 444L925 443L925 430L926 429L926 428ZM935 420L936 424L937 424L937 421ZM877 417L877 426L878 426L878 417ZM1295 412L1294 412L1294 424L1293 425L1293 428L1288 437L1290 436L1293 430L1294 425L1295 424L1295 420L1296 419L1296 417L1295 416ZM1261 412L1259 414L1259 418L1262 421L1262 428L1259 431L1259 434L1261 436L1264 436L1266 434L1266 431L1263 427L1263 421L1267 417L1267 416L1264 412ZM1230 412L1230 423L1231 424L1232 430L1233 432L1234 432L1232 428L1232 425L1231 424L1231 412ZM1271 408L1271 410L1273 413L1273 420L1272 421L1272 423L1273 423L1275 420L1275 412L1273 408ZM1254 408L1252 409L1250 413L1250 419L1252 423L1254 423L1252 419L1252 413L1254 410ZM1233 405L1232 405L1231 409L1232 409ZM1276 402L1281 412L1281 420L1280 421L1279 425L1277 427L1277 429L1278 429L1280 427L1282 423L1282 421L1283 420L1283 412L1282 411L1281 406L1279 404L1279 403L1278 402ZM1249 402L1247 402L1242 412L1242 420L1243 421L1243 423L1245 427L1247 429L1248 429L1248 427L1245 423L1245 420L1244 419L1244 413L1245 412L1245 410L1247 406L1249 404ZM1122 397L1118 397L1116 400L1116 402L1119 405L1119 407L1120 407L1120 406L1125 401L1126 401L1126 400L1125 400ZM985 388L985 395L986 395L986 388ZM1258 384L1258 385L1266 385L1266 384ZM877 383L877 408L878 408L878 383ZM985 348L985 384L986 384L986 348ZM1039 339L1039 340L1043 340L1044 341L1046 341L1046 340ZM996 339L996 340L1002 340L1002 339ZM1007 338L1007 339L1015 339L1015 338ZM985 338L985 342L986 342L987 340L990 340L990 339L987 339ZM867 339L867 340L876 340L877 341L877 369L878 369L878 338L876 339ZM877 322L877 335L878 335L878 322ZM931 313L930 313L930 317L928 318L928 325L930 327L928 328L927 334L928 337L927 416L928 418L925 421L925 425L930 424L931 421L931 385L932 384ZM1246 309L1246 310L1252 310L1252 309ZM1186 309L1186 310L1208 310L1209 311L1211 310L1236 310L1236 309ZM1093 308L1093 311L1095 310L1118 310L1118 309L1095 309ZM1157 301L1158 305L1160 305L1159 301ZM1124 315L1125 315L1125 303L1126 302L1128 303L1128 309L1129 309L1129 303L1130 302L1132 303L1132 306L1133 307L1136 307L1137 308L1138 308L1138 307L1136 307L1134 305L1132 301L1125 301L1125 303L1124 304ZM1168 303L1167 307L1169 307L1170 303L1171 302L1173 303L1173 305L1174 305L1174 303L1176 302L1177 303L1177 310L1178 310L1178 306L1179 304L1177 303L1177 301L1173 300L1172 301L1170 301ZM1142 299L1142 301L1143 302L1142 305L1145 306L1146 300ZM1070 295L1069 296L1069 300L1070 301L1070 308L1071 308L1071 300L1070 299L1071 295ZM879 295L877 296L877 309L878 309L878 297ZM1148 288L1145 289L1145 293L1143 294L1142 296L1146 296L1147 295L1147 290ZM958 278L958 279L961 279L962 280L961 286L962 287L962 291L963 291L963 286L964 285L963 283L963 279ZM1149 276L1145 278L1144 281L1147 280ZM904 276L903 276L903 277L899 280L899 291L906 291L906 290L902 290L901 289L901 286L902 285L905 285L905 284L902 284L901 283L901 281L905 279ZM913 275L911 276L910 279L913 279ZM1238 270L1236 270L1235 272L1238 271ZM1155 266L1154 266L1153 270L1154 270ZM1146 266L1146 268L1148 270L1149 270L1148 266ZM1248 265L1248 269L1247 271L1250 271L1249 269L1249 265ZM1070 263L1070 287L1071 287L1071 263ZM1174 262L1173 261L1169 260L1169 262L1168 263L1164 263L1164 264L1165 265L1168 265L1169 264L1173 264ZM1021 260L1020 260L1020 261L1016 264L1017 266L1018 266L1018 264L1019 263L1021 263L1022 264L1022 266L1023 266L1023 263L1021 262ZM1128 264L1130 265L1136 265L1137 263L1134 263L1133 262L1134 260L1145 260L1145 259L1135 259L1134 260L1131 260L1130 261L1128 261ZM1153 258L1152 257L1150 257L1148 258L1148 260L1150 259L1153 259ZM917 253L916 253L916 258L915 259L915 261L916 261L916 259L918 258L917 256ZM1237 250L1237 251L1241 251L1241 250ZM1081 247L1082 249L1082 296L1083 298L1084 298L1084 296L1083 295L1083 261L1084 259L1083 258L1083 250L1082 249L1082 247ZM907 246L907 251L908 251L909 252L909 254L910 254L910 252L908 251L908 246ZM1055 235L1055 236L1067 236L1068 237L1071 237L1075 240L1076 240L1076 239L1074 237L1070 235L1064 235L1061 233L1057 235ZM1251 231L1250 231L1248 233L1248 235L1250 234ZM911 229L909 229L909 230L907 231L907 237L908 237L909 233L911 231L912 231ZM963 234L963 236L995 235L997 237L998 228L1000 227L1001 232L1004 231L1006 233L1006 237L1008 235L1019 235L1020 233L1024 236L1030 236L1032 232L1035 233L1035 228L1037 227L1039 231L1039 238L1043 235L1050 235L1042 234L1039 229L1039 226L1032 226L1029 234L1022 234L1021 231L1017 234L1007 234L1005 226L997 226L997 229L994 230L993 234ZM953 226L952 227L952 229L950 231L950 232L952 233L952 235L953 235L954 233L954 229L956 228L958 230L958 236L960 236L959 232L960 231L962 231L962 230L961 230L959 228L959 226ZM1259 218L1259 225L1261 225L1260 223L1260 218ZM1259 194L1259 207L1260 207L1260 194ZM981 192L981 193L985 193L985 192ZM969 190L966 191L966 192L969 191ZM947 170L947 183L948 185L951 185L953 186L953 185L955 184L956 185L957 190L961 191L961 190L959 190L957 187L957 183L956 182L952 184L950 184L948 182L948 170ZM914 159L914 174L915 175L915 178L914 179L914 218L916 219L916 229L915 231L920 231L920 230L917 229L917 219L920 218L920 217L916 217L915 216L915 213L916 212L920 212L920 211L916 211L915 210L915 181L917 179L917 175L916 174L917 166L916 165L916 161L915 159ZM1019 149L1017 151L1017 152L1019 155L1021 155L1023 153L1023 150L1022 149ZM1256 147L1255 148L1255 150L1254 151L1252 151L1252 152L1254 152L1256 154L1256 155L1257 155L1259 157L1259 188L1260 188L1260 158L1263 155L1264 151L1262 148L1260 147ZM954 147L950 147L950 148L952 148L953 149L953 153L951 154L951 156L952 156L954 154L954 150L955 149ZM1250 139L1249 139L1247 141L1247 142L1248 142L1250 140ZM949 139L949 141L950 142L954 143L952 139ZM911 139L908 142L908 154L910 156L914 156L914 154L910 153L909 152L909 150L911 148L912 148L912 147L910 147L909 146L909 144L911 142L914 142L914 140L913 139ZM938 130L938 140L939 140L939 130ZM922 105L923 110L925 111L924 117L926 118L926 125L924 127L924 137L923 138L923 141L924 141L924 139L925 138L925 129L927 125L927 118L926 117L926 111L924 110L924 107L923 105ZM927 85L926 85L925 87L925 91L923 92L922 96L921 97L919 97L919 98L923 99L923 97L925 96L925 94L926 93L926 87ZM934 79L935 81L935 86L936 87L936 92L937 92L939 94L939 110L940 110L940 92L938 92L937 91L936 80Z" fill="#e8bc5d" opacity="1.0" filter="url(#glow)"/><path d="M986 922L985 922L985 926L984 927L984 937L985 937L987 934L987 932L986 931ZM877 919L877 922L876 923L877 925L877 933L876 935L877 936L877 943L878 943L878 919ZM918 913L918 914L920 914L921 915L923 915L927 917L929 919L929 921L930 922L931 922L934 918L938 917L940 915L940 914L938 912L932 909L931 907L929 907L923 914L920 914ZM986 892L984 893L984 902L985 902L985 900L986 899ZM877 892L877 897L878 897L878 892ZM946 871L946 879L947 879L947 871ZM946 820L946 852L947 852L947 820ZM916 813L916 891L917 891L917 813ZM927 810L925 811L925 812L927 814L926 816L926 821L927 822L927 888L928 891L929 891L929 857L930 856L929 854L929 818L930 817L930 813L929 810ZM956 788L956 800L957 800L957 788ZM1051 758L1050 759L1050 761L1051 762L1054 762L1054 758ZM1263 729L1263 735L1264 735L1264 729ZM915 726L915 728L917 730L917 751L915 754L919 753L920 754L926 755L928 757L928 759L927 760L923 760L923 761L930 761L929 757L931 755L946 753L947 754L947 760L948 760L948 753L946 751L946 729L945 729L944 731L942 730L940 731L934 731L931 729L931 727L925 726L924 728L925 728L926 730L925 731L922 731L919 730L918 727ZM906 726L906 739L905 740L905 743L906 744L906 760L907 760L907 726ZM1209 719L1208 720L1208 722L1211 722L1211 720ZM1112 719L1112 722L1115 723L1117 721L1117 720L1115 718ZM1313 714L1313 716L1316 716L1316 714ZM947 711L947 715L948 715L948 711ZM906 687L906 693L907 693L907 687ZM928 685L928 690L929 690L929 685ZM1241 669L1241 673L1245 673L1245 669ZM931 620L929 620L929 630L928 631L928 682L929 682L929 674L930 673L930 667L929 666L929 643L930 642L929 630L931 629L931 627L932 626L932 621ZM956 606L956 645L957 645L957 606ZM956 587L956 601L957 601L957 587ZM1321 581L1321 582L1322 582L1323 584L1324 584L1324 581ZM1357 580L1357 589L1358 589L1358 584L1359 583L1359 581ZM1285 579L1285 584L1286 584L1286 579ZM956 575L956 581L957 581L957 575ZM1292 561L1291 561L1287 569L1287 572L1286 574L1287 574L1288 569ZM930 560L930 617L931 617L931 614L932 613L932 611L931 610L931 601L932 600L932 589L931 588L931 584L932 583L932 569L931 568L931 566L932 564L931 563L931 560ZM930 539L929 541L930 542L930 552L931 552L931 544L932 542L931 541L931 539ZM956 513L956 567L957 567L957 513ZM877 498L877 505L878 505L878 498ZM956 493L956 503L957 503L957 493ZM985 479L985 485L986 485L986 479ZM877 479L877 483L878 483L878 479ZM930 468L930 529L929 531L930 532L930 535L931 535L931 533L932 532L932 530L931 529L931 520L932 519L932 471L931 470L931 468ZM956 435L956 455L957 455L957 435ZM1262 427L1262 428L1260 430L1260 434L1262 436L1263 436L1265 434L1265 430L1263 428L1263 427ZM1265 413L1261 413L1259 415L1259 418L1262 420L1265 419L1266 418L1266 415ZM1252 410L1251 414L1250 415L1250 418L1251 419L1251 421L1253 422L1252 420L1252 412L1253 410ZM1271 408L1274 414L1274 418L1272 422L1272 423L1273 423L1275 419L1275 413L1273 409ZM930 405L930 411L931 411L931 405ZM1277 403L1277 404L1280 408L1280 410L1281 411L1281 415L1282 416L1280 424L1277 428L1277 429L1278 429L1282 422L1282 418L1283 417L1283 415L1282 414L1282 410L1281 409L1281 407L1279 405L1279 404ZM1248 403L1246 404L1243 410L1243 414L1242 415L1243 422L1245 426L1246 426L1246 425L1244 421L1244 411ZM956 403L956 423L957 423L957 403ZM1118 398L1117 402L1119 404L1121 404L1123 402L1123 399L1122 398ZM956 311L956 364L957 364L957 311ZM910 230L909 230L909 231L907 232L907 233L908 233L908 232L910 231ZM1019 150L1018 151L1018 153L1019 154L1022 154L1023 151L1022 150ZM1258 148L1256 150L1256 153L1259 156L1260 156L1263 153L1263 151L1260 148Z" fill="#f4d27b" opacity="1.0" filter="url(#glow)"/></svg>